<svg xmlns="http://www.w3.org/2000/svg" xmlns:xlink="http://www.w3.org/1999/xlink" width="500" zoomAndPan="magnify" viewBox="0 0 375 374.999991" height="500" preserveAspectRatio="xMidYMid meet" version="1.0"><defs><clipPath id="id1"><path d="M 126.082031 34.117188 L 282.832031 34.117188 L 282.832031 176.617188 L 126.082031 176.617188 Z M 126.082031 34.117188 " clip-rule="nonzero"/></clipPath><clipPath id="id2"><path d="M 167.792969 324 L 183 324 L 183 339.398438 L 167.792969 339.398438 Z M 167.792969 324 " clip-rule="nonzero"/></clipPath><clipPath id="id3"><path d="M 167.792969 309 L 183 309 L 183 325 L 167.792969 325 Z M 167.792969 309 " clip-rule="nonzero"/></clipPath><clipPath id="id4"><path d="M 167.792969 295 L 183 295 L 183 310 L 167.792969 310 Z M 167.792969 295 " clip-rule="nonzero"/></clipPath><clipPath id="id5"><path d="M 197 324 L 213 324 L 213 339.398438 L 197 339.398438 Z M 197 324 " clip-rule="nonzero"/></clipPath><clipPath id="id6"><path d="M 182 324 L 198 324 L 198 339.398438 L 182 339.398438 Z M 182 324 " clip-rule="nonzero"/></clipPath><clipPath id="id7"><path d="M 345 147.398438 L 359.792969 147.398438 L 359.792969 163 L 345 163 Z M 345 147.398438 " clip-rule="nonzero"/></clipPath><clipPath id="id8"><path d="M 345 162 L 359.792969 162 L 359.792969 177 L 345 177 Z M 345 162 " clip-rule="nonzero"/></clipPath><clipPath id="id9"><path d="M 345 176 L 359.792969 176 L 359.792969 192 L 345 192 Z M 345 176 " clip-rule="nonzero"/></clipPath><clipPath id="id10"><path d="M 330 147.398438 L 346 147.398438 L 346 163 L 330 163 Z M 330 147.398438 " clip-rule="nonzero"/></clipPath><clipPath id="id11"><path d="M 315 147.398438 L 331 147.398438 L 331 163 L 315 163 Z M 315 147.398438 " clip-rule="nonzero"/></clipPath><clipPath id="id12"><path d="M 16.730469 132.28125 L 157.730469 132.28125 L 157.730469 273.28125 L 16.730469 273.28125 Z M 16.730469 132.28125 " clip-rule="nonzero"/></clipPath></defs><g clip-path="url(#id1)"><path fill="#a0c4dc" d="M 154.597656 34.117188 L 154.597656 48.367188 L 183.089844 48.367188 L 183.089844 34.117188 Z M 183.089844 48.367188 L 183.089844 62.617188 L 197.332031 62.617188 L 197.332031 48.367188 Z M 197.332031 62.617188 L 197.332031 76.867188 L 211.578125 76.867188 L 211.578125 62.617188 Z M 211.578125 62.617188 L 225.824219 62.617188 L 225.824219 48.367188 L 211.578125 48.367188 Z M 225.824219 48.367188 L 254.3125 48.367188 L 254.3125 34.117188 L 225.824219 34.117188 Z M 254.3125 48.367188 L 254.3125 62.617188 L 268.558594 62.617188 L 268.558594 48.367188 Z M 268.558594 62.617188 L 268.558594 105.367188 L 282.800781 105.367188 L 282.800781 62.617188 Z M 268.558594 105.367188 L 254.3125 105.367188 L 254.3125 119.617188 L 268.558594 119.617188 Z M 254.3125 119.617188 L 240.066406 119.617188 L 240.066406 133.867188 L 254.3125 133.867188 Z M 240.066406 133.867188 L 225.824219 133.867188 L 225.824219 148.117188 L 240.066406 148.117188 Z M 225.824219 148.117188 L 211.578125 148.117188 L 211.578125 162.367188 L 225.824219 162.367188 Z M 211.578125 162.367188 L 197.332031 162.367188 L 197.332031 176.617188 L 211.578125 176.617188 Z M 197.332031 162.367188 L 197.332031 148.117188 L 183.089844 148.117188 L 183.089844 162.367188 Z M 183.089844 148.117188 L 183.089844 133.867188 L 168.84375 133.867188 L 168.84375 148.117188 Z M 168.84375 133.867188 L 168.84375 119.617188 L 154.597656 119.617188 L 154.597656 133.867188 Z M 154.597656 119.617188 L 154.597656 105.367188 L 140.351562 105.367188 L 140.351562 119.617188 Z M 140.351562 105.367188 L 140.351562 62.617188 L 126.109375 62.617188 L 126.109375 105.367188 Z M 140.351562 62.617188 L 154.597656 62.617188 L 154.597656 48.367188 L 140.351562 48.367188 Z M 140.351562 62.617188 " fill-opacity="1" fill-rule="nonzero"/></g><g clip-path="url(#id2)"><path fill="#a0c4dc" d="M 167.792969 324.628906 L 182.558594 324.628906 L 182.558594 339.398438 L 167.792969 339.398438 Z M 167.792969 324.628906 " fill-opacity="1" fill-rule="nonzero"/></g><g clip-path="url(#id3)"><path fill="#a0c4dc" d="M 167.792969 309.859375 L 182.558594 309.859375 L 182.558594 324.628906 L 167.792969 324.628906 Z M 167.792969 309.859375 " fill-opacity="1" fill-rule="nonzero"/></g><g clip-path="url(#id4)"><path fill="#a0c4dc" d="M 167.792969 295.089844 L 182.558594 295.089844 L 182.558594 309.859375 L 167.792969 309.859375 Z M 167.792969 295.089844 " fill-opacity="1" fill-rule="nonzero"/></g><path fill="#a0c4dc" d="M 182.558594 295.089844 L 197.328125 295.089844 L 197.328125 309.859375 L 182.558594 309.859375 Z M 182.558594 295.089844 " fill-opacity="1" fill-rule="nonzero"/><path fill="#a0c4dc" d="M 197.328125 295.089844 L 212.097656 295.089844 L 212.097656 309.859375 L 197.328125 309.859375 Z M 197.328125 295.089844 " fill-opacity="1" fill-rule="nonzero"/><path fill="#a0c4dc" d="M 197.328125 309.859375 L 212.097656 309.859375 L 212.097656 324.628906 L 197.328125 324.628906 Z M 197.328125 309.859375 " fill-opacity="1" fill-rule="nonzero"/><g clip-path="url(#id5)"><path fill="#a0c4dc" d="M 197.328125 324.628906 L 212.097656 324.628906 L 212.097656 339.398438 L 197.328125 339.398438 Z M 197.328125 324.628906 " fill-opacity="1" fill-rule="nonzero"/></g><g clip-path="url(#id6)"><path fill="#a0c4dc" d="M 182.558594 324.628906 L 197.328125 324.628906 L 197.328125 339.398438 L 182.558594 339.398438 Z M 182.558594 324.628906 " fill-opacity="1" fill-rule="nonzero"/></g><path fill="#a0c4dc" d="M 197.328125 280.320312 L 212.097656 280.320312 L 212.097656 295.089844 L 197.328125 295.089844 Z M 197.328125 280.320312 " fill-opacity="1" fill-rule="nonzero"/><path fill="#a0c4dc" d="M 212.097656 265.550781 L 226.867188 265.550781 L 226.867188 280.320312 L 212.097656 280.320312 Z M 212.097656 265.550781 " fill-opacity="1" fill-rule="nonzero"/><g clip-path="url(#id7)"><path fill="#a0c4dc" d="M 345.023438 147.398438 L 359.792969 147.398438 L 359.792969 162.167969 L 345.023438 162.167969 Z M 345.023438 147.398438 " fill-opacity="1" fill-rule="nonzero"/></g><g clip-path="url(#id8)"><path fill="#a0c4dc" d="M 345.023438 162.167969 L 359.792969 162.167969 L 359.792969 176.9375 L 345.023438 176.9375 Z M 345.023438 162.167969 " fill-opacity="1" fill-rule="nonzero"/></g><g clip-path="url(#id9)"><path fill="#a0c4dc" d="M 345.023438 176.9375 L 359.792969 176.9375 L 359.792969 191.707031 L 345.023438 191.707031 Z M 345.023438 176.9375 " fill-opacity="1" fill-rule="nonzero"/></g><g clip-path="url(#id10)"><path fill="#a0c4dc" d="M 330.253906 147.398438 L 345.023438 147.398438 L 345.023438 162.167969 L 330.253906 162.167969 Z M 330.253906 147.398438 " fill-opacity="1" fill-rule="nonzero"/></g><g clip-path="url(#id11)"><path fill="#a0c4dc" d="M 315.484375 147.398438 L 330.253906 147.398438 L 330.253906 162.167969 L 315.484375 162.167969 Z M 315.484375 147.398438 " fill-opacity="1" fill-rule="nonzero"/></g><path fill="#a0c4dc" d="M 300.714844 162.167969 L 315.484375 162.167969 L 315.484375 176.9375 L 300.714844 176.9375 Z M 300.714844 162.167969 " fill-opacity="1" fill-rule="nonzero"/><path fill="#a0c4dc" d="M 285.945312 176.9375 L 300.714844 176.9375 L 300.714844 191.707031 L 285.945312 191.707031 Z M 285.945312 176.9375 " fill-opacity="1" fill-rule="nonzero"/><path fill="#a0c4dc" d="M 271.175781 191.707031 L 285.945312 191.707031 L 285.945312 206.476562 L 271.175781 206.476562 Z M 271.175781 191.707031 " fill-opacity="1" fill-rule="nonzero"/><path fill="#a0c4dc" d="M 330.253906 191.707031 L 345.023438 191.707031 L 345.023438 206.476562 L 330.253906 206.476562 Z M 330.253906 191.707031 " fill-opacity="1" fill-rule="nonzero"/><path fill="#a0c4dc" d="M 315.484375 206.476562 L 330.253906 206.476562 L 330.253906 221.242188 L 315.484375 221.242188 Z M 315.484375 206.476562 " fill-opacity="1" fill-rule="nonzero"/><path fill="#a0c4dc" d="M 300.714844 221.242188 L 315.484375 221.242188 L 315.484375 236.011719 L 300.714844 236.011719 Z M 300.714844 221.242188 " fill-opacity="1" fill-rule="nonzero"/><path fill="#a0c4dc" d="M 285.945312 236.011719 L 300.714844 236.011719 L 300.714844 250.78125 L 285.945312 250.78125 Z M 285.945312 236.011719 " fill-opacity="1" fill-rule="nonzero"/><path fill="#a0c4dc" d="M 256.40625 206.476562 L 271.175781 206.476562 L 271.175781 221.242188 L 256.40625 221.242188 Z M 256.40625 206.476562 " fill-opacity="1" fill-rule="nonzero"/><path fill="#a0c4dc" d="M 241.636719 221.242188 L 256.40625 221.242188 L 256.40625 236.011719 L 241.636719 236.011719 Z M 241.636719 221.242188 " fill-opacity="1" fill-rule="nonzero"/><path fill="#a0c4dc" d="M 271.175781 250.78125 L 285.945312 250.78125 L 285.945312 265.550781 L 271.175781 265.550781 Z M 271.175781 250.78125 " fill-opacity="1" fill-rule="nonzero"/><path fill="#a0c4dc" d="M 256.40625 265.550781 L 271.175781 265.550781 L 271.175781 280.320312 L 256.40625 280.320312 Z M 256.40625 265.550781 " fill-opacity="1" fill-rule="nonzero"/><path fill="#a0c4dc" d="M 241.636719 265.550781 L 256.40625 265.550781 L 256.40625 280.320312 L 241.636719 280.320312 Z M 241.636719 265.550781 " fill-opacity="1" fill-rule="nonzero"/><path fill="#a0c4dc" d="M 226.867188 250.78125 L 241.636719 250.78125 L 241.636719 265.550781 L 226.867188 265.550781 Z M 226.867188 250.78125 " fill-opacity="1" fill-rule="nonzero"/><path fill="#a0c4dc" d="M 241.636719 295.089844 L 256.40625 295.089844 L 256.40625 309.859375 L 241.636719 309.859375 Z M 241.636719 295.089844 " fill-opacity="1" fill-rule="nonzero"/><path fill="#a0c4dc" d="M 256.40625 295.089844 L 271.175781 295.089844 L 271.175781 309.859375 L 256.40625 309.859375 Z M 256.40625 295.089844 " fill-opacity="1" fill-rule="nonzero"/><path fill="#a0c4dc" d="M 271.175781 280.320312 L 285.945312 280.320312 L 285.945312 295.089844 L 271.175781 295.089844 Z M 271.175781 280.320312 " fill-opacity="1" fill-rule="nonzero"/><path fill="#a0c4dc" d="M 212.097656 221.242188 L 226.867188 221.242188 L 226.867188 236.011719 L 212.097656 236.011719 Z M 212.097656 221.242188 " fill-opacity="1" fill-rule="nonzero"/><path fill="#a0c4dc" d="M 197.328125 236.011719 L 212.097656 236.011719 L 212.097656 250.78125 L 197.328125 250.78125 Z M 197.328125 236.011719 " fill-opacity="1" fill-rule="nonzero"/><path fill="#a0c4dc" d="M 197.328125 250.78125 L 212.097656 250.78125 L 212.097656 265.550781 L 197.328125 265.550781 Z M 197.328125 250.78125 " fill-opacity="1" fill-rule="nonzero"/><path fill="#a0c4dc" d="M 182.558594 221.242188 L 197.328125 221.242188 L 197.328125 236.011719 L 182.558594 236.011719 Z M 182.558594 221.242188 " fill-opacity="1" fill-rule="nonzero"/><path fill="#a0c4dc" d="M 182.558594 206.476562 L 197.328125 206.476562 L 197.328125 221.242188 L 182.558594 221.242188 Z M 182.558594 206.476562 " fill-opacity="1" fill-rule="nonzero"/><path fill="#a0c4dc" d="M 197.328125 206.476562 L 212.097656 206.476562 L 212.097656 221.242188 L 197.328125 221.242188 Z M 197.328125 206.476562 " fill-opacity="1" fill-rule="nonzero"/><path fill="#a0c4dc" d="M 285.945312 295.089844 L 300.714844 295.089844 L 300.714844 309.859375 L 285.945312 309.859375 Z M 285.945312 295.089844 " fill-opacity="1" fill-rule="nonzero"/><path fill="#a0c4dc" d="M 285.945312 309.859375 L 300.714844 309.859375 L 300.714844 324.628906 L 285.945312 324.628906 Z M 285.945312 309.859375 " fill-opacity="1" fill-rule="nonzero"/><path fill="#a0c4dc" d="M 271.175781 309.859375 L 285.945312 309.859375 L 285.945312 324.628906 L 271.175781 324.628906 Z M 271.175781 309.859375 " fill-opacity="1" fill-rule="nonzero"/><path fill="#a0c4dc" d="M 226.867188 236.011719 L 241.636719 236.011719 L 241.636719 250.78125 L 226.867188 250.78125 Z M 226.867188 236.011719 " fill-opacity="1" fill-rule="nonzero"/><path fill="#a0c4dc" d="M 226.867188 280.320312 L 241.636719 280.320312 L 241.636719 295.089844 L 226.867188 295.089844 Z M 226.867188 280.320312 " fill-opacity="1" fill-rule="nonzero"/><path fill="#a0c4dc" d="M 212.097656 295.089844 L 226.867188 295.089844 L 226.867188 309.859375 L 212.097656 309.859375 Z M 212.097656 295.089844 " fill-opacity="1" fill-rule="nonzero"/><g clip-path="url(#id12)"><path fill="#a0c4dc" d="M 16.730469 132.28125 C 16.730469 179.28125 16.730469 226.28125 16.730469 273.28125 L 29.546875 273.28125 L 29.546875 260.480469 L 42.363281 260.480469 L 42.363281 247.644531 L 29.546875 247.644531 L 29.546875 157.933594 L 42.363281 157.933594 L 42.363281 145.101562 L 29.546875 145.101562 L 29.546875 132.28125 Z M 42.363281 157.933594 L 42.363281 170.71875 L 55.183594 170.71875 L 55.183594 157.933594 Z M 55.183594 170.71875 L 55.183594 183.554688 L 68 183.554688 L 68 170.71875 Z M 68 183.554688 L 68 196.375 L 80.835938 196.375 L 80.835938 209.191406 L 68 209.191406 L 68 222.007812 L 80.835938 222.007812 L 80.835938 273.28125 L 93.621094 273.28125 L 93.621094 260.480469 C 97.894531 260.480469 102.167969 260.480469 106.457031 260.480469 L 106.457031 247.644531 L 93.621094 247.644531 L 93.621094 157.933594 C 97.894531 157.933594 102.167969 157.933594 106.457031 157.933594 L 106.457031 145.101562 L 93.621094 145.101562 L 93.621094 132.28125 L 80.835938 132.28125 C 80.835938 149.375 80.835938 166.464844 80.835938 183.554688 Z M 106.457031 157.933594 L 106.457031 170.71875 C 110.730469 170.71875 115 170.71875 119.273438 170.71875 L 119.273438 157.933594 Z M 119.273438 170.71875 L 119.273438 183.554688 C 123.546875 183.554688 127.820312 183.554688 132.09375 183.554688 L 132.09375 170.71875 Z M 132.09375 183.554688 L 132.09375 196.375 C 136.363281 196.375 140.636719 196.375 144.910156 196.375 L 144.910156 183.554688 Z M 144.910156 196.375 L 144.910156 209.191406 C 149.183594 209.191406 153.457031 209.191406 157.730469 209.191406 L 157.730469 196.375 Z M 144.910156 209.191406 L 132.09375 209.191406 L 132.09375 222.007812 C 136.363281 222.007812 140.636719 222.007812 144.910156 222.007812 Z M 132.09375 222.007812 L 119.273438 222.007812 L 119.273438 234.828125 C 123.546875 234.828125 127.820312 234.828125 132.09375 234.828125 Z M 119.273438 234.828125 L 106.457031 234.828125 L 106.457031 247.644531 C 110.730469 247.644531 115 247.644531 119.273438 247.644531 Z M 68 222.007812 L 55.183594 222.007812 L 55.183594 234.828125 L 68 234.828125 Z M 55.183594 234.828125 L 42.363281 234.828125 L 42.363281 247.644531 L 55.183594 247.644531 L 55.183594 234.828125 " fill-opacity="1" fill-rule="nonzero"/></g></svg>