<svg xmlns="http://www.w3.org/2000/svg" xmlns:xlink="http://www.w3.org/1999/xlink" width="500" zoomAndPan="magnify" viewBox="0 0 375 374.999991" height="500" preserveAspectRatio="xMidYMid meet" version="1.0"><defs><clipPath id="id1"><path d="M 15.933594 82.3125 L 359.433594 82.3125 L 359.433594 285.5625 L 15.933594 285.5625 Z M 15.933594 82.3125 " clip-rule="nonzero"/></clipPath><clipPath id="id2"><path d="M 115.019531 156.710938 L 259.769531 156.710938 L 259.769531 260.210938 L 115.019531 260.210938 Z M 115.019531 156.710938 " clip-rule="nonzero"/></clipPath><clipPath id="id3"><path d="M 157 156.710938 L 259.769531 156.710938 L 259.769531 260.210938 L 157 260.210938 Z M 157 156.710938 " clip-rule="nonzero"/></clipPath></defs><g clip-path="url(#id1)"><path fill="#a0c4dc" d="M 289.324219 285.550781 L 82 285.550781 C 45.570312 285.550781 15.933594 259.191406 15.933594 226.792969 C 15.933594 201.332031 34.132812 179.101562 60.816406 171.125 C 63.042969 140.492188 91.773438 116.171875 126.773438 116.171875 C 134.140625 116.171875 141.285156 117.226562 148.085938 119.300781 C 158.550781 97.222656 184.242188 82.332031 213.195312 82.332031 C 251.234375 82.332031 282.289062 107.894531 283.21875 139.621094 C 285.246094 139.433594 287.285156 139.34375 289.332031 139.34375 C 327.972656 139.34375 359.40625 172.144531 359.40625 212.460938 C 359.398438 252.757812 327.964844 285.550781 289.324219 285.550781 Z M 126.773438 130.015625 C 97.953125 130.015625 74.5 150.175781 74.5 174.957031 C 74.5 175.234375 74.5 175.617188 74.515625 175.746094 C 74.910156 179.269531 72.574219 182.511719 69.117188 183.265625 C 45.941406 188.320312 29.757812 206.222656 29.757812 226.792969 C 29.757812 251.5625 53.191406 271.710938 82 271.710938 L 289.332031 271.710938 C 320.347656 271.710938 345.582031 245.128906 345.582031 212.453125 C 345.582031 179.765625 320.347656 153.171875 289.332031 153.171875 C 285.257812 153.171875 281.230469 153.632812 277.351562 154.539062 C 275.085938 155.074219 272.714844 154.429688 271.027344 152.832031 C 269.34375 151.234375 268.566406 148.890625 268.976562 146.601562 C 269.28125 144.898438 269.425781 143.09375 269.425781 141.082031 C 269.425781 116.3125 244.207031 96.164062 213.199219 96.164062 C 187.371094 96.164062 164.945312 110.140625 158.648438 130.152344 C 158.066406 132.007812 156.726562 133.527344 154.964844 134.351562 C 153.203125 135.171875 151.175781 135.207031 149.386719 134.453125 C 142.34375 131.507812 134.734375 130.015625 126.773438 130.015625 Z M 126.773438 130.015625 " fill-opacity="1" fill-rule="nonzero"/></g><g clip-path="url(#id2)"><path fill="#a0c4dc" d="M 99.433594 148.984375 L 230.871094 148.984375 C 234.902344 148.984375 238.175781 145.714844 238.175781 141.683594 C 238.175781 137.652344 234.902344 134.378906 230.871094 134.378906 L 99.433594 134.378906 L 99.433594 90.558594 C 99.433594 86.527344 102.707031 83.253906 106.738281 83.253906 C 106.738281 83.253906 449.933594 83.253906 449.933594 83.253906 C 453.964844 83.253906 457.238281 79.980469 457.238281 75.949219 C 457.238281 71.917969 453.964844 68.648438 449.933594 68.648438 C 449.933594 68.648438 166.226562 68.648438 106.738281 68.648438 C 94.636719 68.648438 84.832031 78.457031 84.832031 90.558594 L 84.832031 353.484375 C 84.832031 365.589844 94.636719 375.398438 106.738281 375.398438 L 121.339844 375.398438 C 125.371094 375.398438 128.644531 372.125 128.644531 368.09375 C 128.644531 364.0625 125.371094 360.789062 121.339844 360.789062 L 106.738281 360.789062 C 102.707031 360.789062 99.433594 357.519531 99.433594 353.484375 Z M 99.433594 148.984375 " fill-opacity="1" fill-rule="evenodd"/></g><g clip-path="url(#id3)"><path fill="#a0c4dc" d="M 493.746094 134.378906 L 252.777344 134.378906 C 248.746094 134.378906 245.476562 137.652344 245.476562 141.683594 C 245.476562 145.714844 248.746094 148.984375 252.777344 148.984375 L 493.746094 148.984375 L 493.746094 353.484375 C 493.746094 357.519531 490.476562 360.789062 486.445312 360.789062 C 486.445312 360.789062 165.152344 360.789062 165.152344 360.789062 C 161.121094 360.789062 157.851562 364.0625 157.851562 368.09375 C 157.851562 372.125 161.121094 375.398438 165.152344 375.398438 C 165.152344 375.398438 430.226562 375.398438 486.445312 375.398438 C 498.546875 375.398438 508.351562 365.589844 508.351562 353.484375 L 508.351562 90.558594 C 508.351562 78.457031 498.546875 68.648438 486.445312 68.648438 L 471.839844 68.648438 C 467.8125 68.648438 464.539062 71.917969 464.539062 75.949219 C 464.539062 79.980469 467.8125 83.253906 471.839844 83.253906 L 486.445312 83.253906 C 490.476562 83.253906 493.746094 86.527344 493.746094 90.558594 Z M 493.746094 134.378906 " fill-opacity="1" fill-rule="evenodd"/></g><path fill="#a0c4dc" d="M 213.984375 179.648438 L 236.101562 202.316406 C 238.867188 205.152344 238.867188 209.679688 236.101562 212.511719 L 213.984375 235.183594 C 211.171875 238.066406 211.222656 242.691406 214.105469 245.511719 C 216.992188 248.320312 221.621094 248.261719 224.433594 245.378906 C 224.433594 245.378906 237.128906 232.371094 246.550781 222.714844 C 254.851562 214.207031 254.851562 200.621094 246.550781 192.113281 C 237.128906 182.457031 224.433594 169.449219 224.433594 169.449219 C 221.621094 166.566406 216.992188 166.507812 214.105469 169.320312 C 211.222656 172.136719 211.171875 176.761719 213.984375 179.648438 Z M 213.984375 179.648438 " fill-opacity="1" fill-rule="evenodd"/><path fill="#a0c4dc" d="M 149.6875 169.449219 C 149.6875 169.449219 136.988281 182.457031 127.570312 192.113281 C 119.265625 200.621094 119.265625 214.207031 127.570312 222.714844 C 136.988281 232.371094 149.6875 245.378906 149.6875 245.378906 C 152.5 248.261719 157.128906 248.320312 160.011719 245.511719 C 162.898438 242.691406 162.949219 238.066406 160.136719 235.183594 L 138.019531 212.511719 C 135.25 209.679688 135.25 205.152344 138.019531 202.316406 L 160.136719 179.648438 C 162.949219 176.761719 162.898438 172.136719 160.011719 169.320312 C 157.128906 166.507812 152.5 166.566406 149.6875 169.449219 Z M 149.6875 169.449219 " fill-opacity="1" fill-rule="evenodd"/><path fill="#a0c4dc" d="M 187.199219 178.15625 L 172.695312 232.933594 C 171.667969 236.832031 173.996094 240.828125 177.886719 241.867188 C 181.789062 242.894531 185.78125 240.566406 186.820312 236.671875 L 201.3125 181.894531 C 202.34375 177.996094 200.019531 174 196.121094 172.964844 C 192.230469 171.933594 188.226562 174.265625 187.199219 178.15625 Z M 187.199219 178.15625 " fill-opacity="1" fill-rule="evenodd"/></svg>