<svg xmlns="http://www.w3.org/2000/svg" xmlns:xlink="http://www.w3.org/1999/xlink" width="500" zoomAndPan="magnify" viewBox="0 0 375 374.999991" height="500" preserveAspectRatio="xMidYMid meet" version="1.0"><defs><clipPath id="id1"><path d="M 57 299 L 70 299 L 70 311.402344 L 57 311.402344 Z M 57 299 " clip-rule="nonzero"/></clipPath><clipPath id="id2"><path d="M 16.730469 63.902344 L 317 63.902344 L 317 311.402344 L 16.730469 311.402344 Z M 16.730469 63.902344 " clip-rule="nonzero"/></clipPath><clipPath id="id3"><path d="M 75 63.902344 L 357.980469 63.902344 L 357.980469 311.402344 L 75 311.402344 Z M 75 63.902344 " clip-rule="nonzero"/></clipPath></defs><g clip-path="url(#id1)"><path fill="#a0c4dc" d="M 69.742188 305.511719 C 69.742188 305.898438 69.707031 306.28125 69.632812 306.660156 C 69.554688 307.039062 69.445312 307.410156 69.296875 307.765625 C 69.148438 308.125 68.96875 308.464844 68.753906 308.785156 C 68.539062 309.105469 68.292969 309.40625 68.023438 309.679688 C 67.75 309.953125 67.453125 310.195312 67.128906 310.410156 C 66.808594 310.625 66.46875 310.808594 66.113281 310.957031 C 65.757812 311.105469 65.390625 311.214844 65.011719 311.289062 C 64.632812 311.367188 64.25 311.402344 63.863281 311.402344 C 63.476562 311.402344 63.09375 311.367188 62.714844 311.289062 C 62.335938 311.214844 61.96875 311.105469 61.613281 310.957031 C 61.257812 310.808594 60.917969 310.625 60.597656 310.410156 C 60.277344 310.195312 59.976562 309.953125 59.707031 309.679688 C 59.433594 309.40625 59.1875 309.105469 58.972656 308.785156 C 58.757812 308.464844 58.578125 308.125 58.429688 307.765625 C 58.28125 307.410156 58.171875 307.039062 58.097656 306.660156 C 58.019531 306.28125 57.984375 305.898438 57.984375 305.511719 C 57.984375 305.125 58.019531 304.742188 58.097656 304.363281 C 58.171875 303.980469 58.28125 303.613281 58.429688 303.257812 C 58.578125 302.898438 58.757812 302.558594 58.972656 302.238281 C 59.1875 301.914062 59.433594 301.617188 59.707031 301.34375 C 59.976562 301.070312 60.277344 300.828125 60.597656 300.613281 C 60.917969 300.398438 61.257812 300.214844 61.613281 300.066406 C 61.96875 299.917969 62.335938 299.808594 62.714844 299.730469 C 63.09375 299.65625 63.476562 299.617188 63.863281 299.617188 C 64.25 299.617188 64.632812 299.65625 65.011719 299.730469 C 65.390625 299.808594 65.757812 299.917969 66.113281 300.066406 C 66.46875 300.214844 66.808594 300.398438 67.128906 300.613281 C 67.453125 300.828125 67.75 301.070312 68.023438 301.34375 C 68.292969 301.617188 68.539062 301.914062 68.753906 302.238281 C 68.96875 302.558594 69.148438 302.898438 69.296875 303.257812 C 69.445312 303.613281 69.554688 303.980469 69.632812 304.363281 C 69.707031 304.742188 69.742188 305.125 69.742188 305.511719 Z M 69.742188 305.511719 " fill-opacity="1" fill-rule="nonzero"/></g><g clip-path="url(#id2)"><path fill="#a0c4dc" d="M 28.582031 128.726562 L 134.429688 128.726562 C 137.675781 128.726562 140.308594 126.085938 140.308594 122.832031 C 140.308594 119.578125 137.675781 116.941406 134.429688 116.941406 L 28.582031 116.941406 L 28.582031 81.582031 C 28.582031 78.328125 31.214844 75.691406 34.460938 75.691406 C 34.460938 75.691406 310.84375 75.691406 310.84375 75.691406 C 314.089844 75.691406 316.722656 73.050781 316.722656 69.796875 C 316.722656 66.542969 314.089844 63.902344 310.84375 63.902344 C 310.84375 63.902344 82.371094 63.902344 34.460938 63.902344 C 24.71875 63.902344 16.820312 71.816406 16.820312 81.582031 L 16.820312 293.726562 C 16.820312 303.488281 24.71875 311.402344 34.460938 311.402344 L 46.222656 311.402344 C 49.46875 311.402344 52.101562 308.765625 52.101562 305.511719 C 52.101562 302.257812 49.46875 299.617188 46.222656 299.617188 L 34.460938 299.617188 C 31.214844 299.617188 28.582031 296.976562 28.582031 293.726562 Z M 28.582031 128.726562 " fill-opacity="1" fill-rule="evenodd"/></g><g clip-path="url(#id3)"><path fill="#a0c4dc" d="M 346.125 116.941406 L 152.070312 116.941406 C 148.824219 116.941406 146.191406 119.578125 146.191406 122.832031 C 146.191406 126.085938 148.824219 128.726562 152.070312 128.726562 L 346.125 128.726562 L 346.125 293.726562 C 346.125 296.976562 343.492188 299.617188 340.246094 299.617188 C 340.246094 299.617188 81.503906 299.617188 81.503906 299.617188 C 78.257812 299.617188 75.625 302.257812 75.625 305.511719 C 75.625 308.765625 78.257812 311.402344 81.503906 311.402344 C 81.503906 311.402344 294.972656 311.402344 340.246094 311.402344 C 349.988281 311.402344 357.886719 303.488281 357.886719 293.726562 L 357.886719 81.582031 C 357.886719 71.816406 349.988281 63.902344 340.246094 63.902344 L 328.484375 63.902344 C 325.238281 63.902344 322.605469 66.542969 322.605469 69.796875 C 322.605469 73.050781 325.238281 75.691406 328.484375 75.691406 L 340.246094 75.691406 C 343.492188 75.691406 346.125 78.328125 346.125 81.582031 Z M 346.125 116.941406 " fill-opacity="1" fill-rule="evenodd"/></g><path fill="#a0c4dc" d="M 57.984375 96.316406 C 57.984375 96.894531 57.925781 97.46875 57.8125 98.039062 C 57.699219 98.609375 57.535156 99.160156 57.3125 99.699219 C 57.089844 100.234375 56.816406 100.742188 56.496094 101.226562 C 56.175781 101.707031 55.808594 102.15625 55.398438 102.566406 C 54.988281 102.976562 54.542969 103.34375 54.0625 103.664062 C 53.582031 103.988281 53.074219 104.257812 52.539062 104.480469 C 52.003906 104.703125 51.453125 104.871094 50.882812 104.984375 C 50.316406 105.097656 49.742188 105.152344 49.164062 105.152344 C 48.582031 105.152344 48.007812 105.097656 47.441406 104.984375 C 46.875 104.871094 46.320312 104.703125 45.785156 104.480469 C 45.25 104.257812 44.742188 103.988281 44.261719 103.664062 C 43.78125 103.34375 43.335938 102.976562 42.925781 102.566406 C 42.515625 102.15625 42.148438 101.707031 41.828125 101.226562 C 41.507812 100.742188 41.234375 100.234375 41.011719 99.699219 C 40.792969 99.160156 40.625 98.609375 40.511719 98.039062 C 40.398438 97.46875 40.339844 96.894531 40.339844 96.316406 C 40.339844 95.734375 40.398438 95.160156 40.511719 94.589844 C 40.625 94.019531 40.792969 93.46875 41.011719 92.933594 C 41.234375 92.394531 41.507812 91.886719 41.828125 91.402344 C 42.148438 90.921875 42.515625 90.476562 42.925781 90.066406 C 43.335938 89.652344 43.78125 89.289062 44.261719 88.964844 C 44.742188 88.644531 45.25 88.371094 45.785156 88.148438 C 46.320312 87.925781 46.875 87.757812 47.441406 87.644531 C 48.007812 87.53125 48.582031 87.476562 49.164062 87.476562 C 49.742188 87.476562 50.316406 87.53125 50.882812 87.644531 C 51.453125 87.757812 52.003906 87.925781 52.539062 88.148438 C 53.074219 88.371094 53.582031 88.644531 54.0625 88.964844 C 54.542969 89.289062 54.988281 89.652344 55.398438 90.066406 C 55.808594 90.476562 56.175781 90.921875 56.496094 91.402344 C 56.816406 91.886719 57.089844 92.394531 57.3125 92.933594 C 57.535156 93.46875 57.699219 94.019531 57.8125 94.589844 C 57.925781 95.160156 57.984375 95.734375 57.984375 96.316406 Z M 57.984375 96.316406 " fill-opacity="1" fill-rule="nonzero"/><path fill="#a0c4dc" d="M 87.386719 96.316406 C 87.386719 96.894531 87.328125 97.46875 87.214844 98.039062 C 87.101562 98.609375 86.9375 99.160156 86.714844 99.699219 C 86.492188 100.234375 86.21875 100.742188 85.898438 101.226562 C 85.578125 101.707031 85.210938 102.15625 84.800781 102.566406 C 84.390625 102.976562 83.945312 103.34375 83.464844 103.664062 C 82.984375 103.988281 82.476562 104.257812 81.941406 104.480469 C 81.40625 104.703125 80.855469 104.871094 80.285156 104.984375 C 79.71875 105.097656 79.144531 105.152344 78.566406 105.152344 C 77.984375 105.152344 77.410156 105.097656 76.84375 104.984375 C 76.277344 104.871094 75.722656 104.703125 75.1875 104.480469 C 74.652344 104.257812 74.144531 103.988281 73.664062 103.664062 C 73.183594 103.34375 72.738281 102.976562 72.328125 102.566406 C 71.917969 102.15625 71.550781 101.707031 71.230469 101.226562 C 70.910156 100.742188 70.636719 100.234375 70.414062 99.699219 C 70.195312 99.160156 70.027344 98.609375 69.914062 98.039062 C 69.800781 97.46875 69.742188 96.894531 69.742188 96.316406 C 69.742188 95.734375 69.800781 95.160156 69.914062 94.589844 C 70.027344 94.019531 70.195312 93.46875 70.414062 92.933594 C 70.636719 92.394531 70.910156 91.886719 71.230469 91.402344 C 71.550781 90.921875 71.917969 90.476562 72.328125 90.066406 C 72.738281 89.652344 73.183594 89.289062 73.664062 88.964844 C 74.144531 88.644531 74.652344 88.371094 75.1875 88.148438 C 75.722656 87.925781 76.277344 87.757812 76.84375 87.644531 C 77.410156 87.53125 77.984375 87.476562 78.566406 87.476562 C 79.144531 87.476562 79.71875 87.53125 80.285156 87.644531 C 80.855469 87.757812 81.40625 87.925781 81.941406 88.148438 C 82.476562 88.371094 82.984375 88.644531 83.464844 88.964844 C 83.945312 89.289062 84.390625 89.652344 84.800781 90.066406 C 85.210938 90.476562 85.578125 90.921875 85.898438 91.402344 C 86.21875 91.886719 86.492188 92.394531 86.714844 92.933594 C 86.9375 93.46875 87.101562 94.019531 87.214844 94.589844 C 87.328125 95.160156 87.386719 95.734375 87.386719 96.316406 Z M 87.386719 96.316406 " fill-opacity="1" fill-rule="nonzero"/><path fill="#a0c4dc" d="M 116.789062 96.316406 C 116.789062 96.894531 116.730469 97.46875 116.617188 98.039062 C 116.503906 98.609375 116.339844 99.160156 116.117188 99.699219 C 115.894531 100.234375 115.625 100.742188 115.300781 101.226562 C 114.980469 101.707031 114.613281 102.15625 114.203125 102.566406 C 113.792969 102.976562 113.347656 103.34375 112.867188 103.664062 C 112.386719 103.988281 111.878906 104.257812 111.34375 104.480469 C 110.808594 104.703125 110.257812 104.871094 109.6875 104.984375 C 109.121094 105.097656 108.546875 105.152344 107.96875 105.152344 C 107.386719 105.152344 106.8125 105.097656 106.246094 104.984375 C 105.679688 104.871094 105.125 104.703125 104.589844 104.480469 C 104.054688 104.257812 103.546875 103.988281 103.066406 103.664062 C 102.585938 103.34375 102.140625 102.976562 101.730469 102.566406 C 101.320312 102.15625 100.953125 101.707031 100.632812 101.226562 C 100.3125 100.742188 100.039062 100.234375 99.816406 99.699219 C 99.597656 99.160156 99.429688 98.609375 99.316406 98.039062 C 99.203125 97.46875 99.144531 96.894531 99.144531 96.316406 C 99.144531 95.734375 99.203125 95.160156 99.316406 94.589844 C 99.429688 94.019531 99.597656 93.46875 99.816406 92.933594 C 100.039062 92.394531 100.3125 91.886719 100.632812 91.402344 C 100.953125 90.921875 101.320312 90.476562 101.730469 90.066406 C 102.140625 89.652344 102.585938 89.289062 103.066406 88.964844 C 103.546875 88.644531 104.054688 88.371094 104.589844 88.148438 C 105.125 87.925781 105.679688 87.757812 106.246094 87.644531 C 106.8125 87.53125 107.386719 87.476562 107.96875 87.476562 C 108.546875 87.476562 109.121094 87.53125 109.6875 87.644531 C 110.257812 87.757812 110.808594 87.925781 111.34375 88.148438 C 111.878906 88.371094 112.386719 88.644531 112.867188 88.964844 C 113.347656 89.289062 113.792969 89.652344 114.203125 90.066406 C 114.613281 90.476562 114.980469 90.921875 115.300781 91.402344 C 115.625 91.886719 115.894531 92.394531 116.117188 92.933594 C 116.339844 93.46875 116.503906 94.019531 116.617188 94.589844 C 116.730469 95.160156 116.789062 95.734375 116.789062 96.316406 Z M 116.789062 96.316406 " fill-opacity="1" fill-rule="nonzero"/><path fill="#a0c4dc" d="M 181.472656 214.171875 L 181.472656 202.386719 C 181.472656 198.480469 179.925781 194.730469 177.167969 191.96875 C 174.410156 189.203125 170.671875 187.652344 166.773438 187.652344 C 144.039062 187.652344 83.65625 187.652344 60.921875 187.652344 C 57.023438 187.652344 53.285156 189.203125 50.527344 191.96875 C 47.769531 194.730469 46.222656 198.480469 46.222656 202.386719 C 46.222656 219.324219 46.222656 256.164062 46.222656 273.101562 C 46.222656 277.007812 47.769531 280.753906 50.527344 283.519531 C 53.285156 286.28125 57.023438 287.832031 60.921875 287.832031 C 83.65625 287.832031 144.039062 287.832031 166.773438 287.832031 C 170.671875 287.832031 174.410156 286.28125 177.167969 283.519531 C 179.925781 280.753906 181.472656 277.007812 181.472656 273.101562 C 181.472656 259.441406 181.472656 231.851562 181.472656 231.851562 C 181.472656 228.597656 178.839844 225.957031 175.59375 225.957031 C 172.347656 225.957031 169.710938 228.597656 169.710938 231.851562 L 169.710938 273.101562 C 169.710938 273.882812 169.402344 274.632812 168.855469 275.1875 C 168.300781 275.734375 167.554688 276.046875 166.773438 276.046875 L 60.921875 276.046875 C 60.140625 276.046875 59.394531 275.734375 58.839844 275.1875 C 58.292969 274.632812 57.984375 273.882812 57.984375 273.101562 L 57.984375 202.386719 C 57.984375 201.601562 58.292969 200.855469 58.839844 200.300781 C 59.394531 199.753906 60.140625 199.441406 60.921875 199.441406 L 166.773438 199.441406 C 167.554688 199.441406 168.300781 199.753906 168.855469 200.300781 C 169.402344 200.855469 169.710938 201.601562 169.710938 202.386719 L 169.710938 214.171875 C 169.710938 217.425781 172.347656 220.066406 175.59375 220.066406 C 178.839844 220.066406 181.472656 217.425781 181.472656 214.171875 Z M 181.472656 214.171875 " fill-opacity="1" fill-rule="evenodd"/><path fill="#a0c4dc" d="M 142.9375 243.011719 C 144.933594 242.015625 146.191406 239.976562 146.191406 237.742188 C 146.191406 235.511719 144.933594 233.472656 142.9375 232.476562 L 101.773438 211.851562 C 99.953125 210.9375 97.789062 211.03125 96.054688 212.105469 C 94.320312 213.183594 93.265625 215.074219 93.265625 217.117188 L 93.265625 258.367188 C 93.265625 260.414062 94.320312 262.304688 96.054688 263.382812 C 97.789062 264.457031 99.953125 264.550781 101.773438 263.636719 Z M 127.160156 237.742188 L 105.027344 248.832031 C 105.027344 248.832031 105.027344 226.652344 105.027344 226.652344 Z M 127.160156 237.742188 " fill-opacity="1" fill-rule="evenodd"/><path fill="#a0c4dc" d="M 199.113281 199.441406 L 322.605469 199.441406 C 325.851562 199.441406 328.484375 196.800781 328.484375 193.546875 C 328.484375 190.292969 325.851562 187.652344 322.605469 187.652344 L 199.113281 187.652344 C 195.867188 187.652344 193.234375 190.292969 193.234375 193.546875 C 193.234375 196.800781 195.867188 199.441406 199.113281 199.441406 Z M 199.113281 199.441406 " fill-opacity="1" fill-rule="evenodd"/><path fill="#a0c4dc" d="M 199.113281 223.011719 L 304.964844 223.011719 C 308.210938 223.011719 310.84375 220.371094 310.84375 217.117188 C 310.84375 213.867188 308.210938 211.226562 304.964844 211.226562 L 199.113281 211.226562 C 195.867188 211.226562 193.234375 213.867188 193.234375 217.117188 C 193.234375 220.371094 195.867188 223.011719 199.113281 223.011719 Z M 199.113281 223.011719 " fill-opacity="1" fill-rule="evenodd"/><path fill="#a0c4dc" d="M 199.113281 246.582031 L 310.84375 246.582031 C 314.089844 246.582031 316.722656 243.941406 316.722656 240.691406 C 316.722656 237.4375 314.089844 234.796875 310.84375 234.796875 L 199.113281 234.796875 C 195.867188 234.796875 193.234375 237.4375 193.234375 240.691406 C 193.234375 243.941406 195.867188 246.582031 199.113281 246.582031 Z M 199.113281 246.582031 " fill-opacity="1" fill-rule="evenodd"/><path fill="#a0c4dc" d="M 199.113281 270.152344 L 266.738281 270.152344 C 269.984375 270.152344 272.621094 267.515625 272.621094 264.261719 C 272.621094 261.007812 269.984375 258.367188 266.738281 258.367188 L 199.113281 258.367188 C 195.867188 258.367188 193.234375 261.007812 193.234375 264.261719 C 193.234375 267.515625 195.867188 270.152344 199.113281 270.152344 Z M 199.113281 270.152344 " fill-opacity="1" fill-rule="evenodd"/><path fill="#a0c4dc" d="M 302.023438 152.296875 L 313.785156 152.296875 C 317.03125 152.296875 319.664062 154.9375 319.664062 158.191406 C 319.664062 161.441406 317.03125 164.082031 313.785156 164.082031 C 313.785156 164.082031 60.921875 164.082031 60.921875 164.082031 C 57.675781 164.082031 55.042969 161.441406 55.042969 158.191406 C 55.042969 154.9375 57.675781 152.296875 60.921875 152.296875 L 284.382812 152.296875 C 287.628906 152.296875 290.261719 149.65625 290.261719 146.402344 C 290.261719 143.152344 287.628906 140.511719 284.382812 140.511719 L 60.921875 140.511719 C 51.183594 140.511719 43.28125 148.429688 43.28125 158.191406 C 43.28125 167.949219 51.183594 175.867188 60.921875 175.867188 C 60.921875 175.867188 313.785156 175.867188 313.785156 175.867188 C 323.523438 175.867188 331.425781 167.949219 331.425781 158.191406 C 331.425781 148.429688 323.523438 140.511719 313.785156 140.511719 C 313.785156 140.511719 302.023438 140.511719 302.023438 140.511719 C 298.777344 140.511719 296.140625 143.152344 296.140625 146.402344 C 296.140625 149.65625 298.777344 152.296875 302.023438 152.296875 Z M 302.023438 152.296875 " fill-opacity="1" fill-rule="evenodd"/></svg>