<svg xmlns="http://www.w3.org/2000/svg" xmlns:xlink="http://www.w3.org/1999/xlink" width="500" zoomAndPan="magnify" viewBox="0 0 375 374.999991" height="500" preserveAspectRatio="xMidYMid meet" version="1.0"><defs><clipPath id="id1"><path d="M 57 299 L 70 299 L 70 311.402344 L 57 311.402344 Z M 57 299 " clip-rule="nonzero"/></clipPath><clipPath id="id2"><path d="M 16.730469 63.902344 L 317 63.902344 L 317 311.402344 L 16.730469 311.402344 Z M 16.730469 63.902344 " clip-rule="nonzero"/></clipPath><clipPath id="id3"><path d="M 75 63.902344 L 357.980469 63.902344 L 357.980469 311.402344 L 75 311.402344 Z M 75 63.902344 " clip-rule="nonzero"/></clipPath></defs><g clip-path="url(#id1)"><path fill="#a0c4dc" d="M 69.742188 305.511719 C 69.742188 305.898438 69.707031 306.28125 69.632812 306.660156 C 69.554688 307.039062 69.445312 307.410156 69.296875 307.765625 C 69.148438 308.125 68.96875 308.464844 68.753906 308.785156 C 68.539062 309.105469 68.292969 309.40625 68.023438 309.679688 C 67.75 309.953125 67.453125 310.195312 67.128906 310.410156 C 66.808594 310.625 66.46875 310.808594 66.113281 310.957031 C 65.757812 311.105469 65.390625 311.214844 65.011719 311.289062 C 64.632812 311.367188 64.25 311.402344 63.863281 311.402344 C 63.476562 311.402344 63.09375 311.367188 62.714844 311.289062 C 62.335938 311.214844 61.96875 311.105469 61.613281 310.957031 C 61.257812 310.808594 60.917969 310.625 60.597656 310.410156 C 60.277344 310.195312 59.976562 309.953125 59.707031 309.679688 C 59.433594 309.40625 59.1875 309.105469 58.972656 308.785156 C 58.757812 308.464844 58.578125 308.125 58.429688 307.765625 C 58.28125 307.410156 58.171875 307.039062 58.097656 306.660156 C 58.019531 306.28125 57.984375 305.898438 57.984375 305.511719 C 57.984375 305.125 58.019531 304.742188 58.097656 304.363281 C 58.171875 303.980469 58.28125 303.613281 58.429688 303.257812 C 58.578125 302.898438 58.757812 302.558594 58.972656 302.238281 C 59.1875 301.914062 59.433594 301.617188 59.707031 301.34375 C 59.976562 301.070312 60.277344 300.828125 60.597656 300.613281 C 60.917969 300.398438 61.257812 300.214844 61.613281 300.066406 C 61.96875 299.917969 62.335938 299.808594 62.714844 299.730469 C 63.09375 299.65625 63.476562 299.617188 63.863281 299.617188 C 64.25 299.617188 64.632812 299.65625 65.011719 299.730469 C 65.390625 299.808594 65.757812 299.917969 66.113281 300.066406 C 66.46875 300.214844 66.808594 300.398438 67.128906 300.613281 C 67.453125 300.828125 67.75 301.070312 68.023438 301.34375 C 68.292969 301.617188 68.539062 301.914062 68.753906 302.238281 C 68.96875 302.558594 69.148438 302.898438 69.296875 303.257812 C 69.445312 303.613281 69.554688 303.980469 69.632812 304.363281 C 69.707031 304.742188 69.742188 305.125 69.742188 305.511719 Z M 69.742188 305.511719 " fill-opacity="1" fill-rule="nonzero"/></g><g clip-path="url(#id2)"><path fill="#a0c4dc" d="M 28.582031 128.726562 L 134.429688 128.726562 C 137.675781 128.726562 140.308594 126.085938 140.308594 122.832031 C 140.308594 119.578125 137.675781 116.941406 134.429688 116.941406 L 28.582031 116.941406 L 28.582031 81.582031 C 28.582031 78.328125 31.214844 75.691406 34.460938 75.691406 C 34.460938 75.691406 310.84375 75.691406 310.84375 75.691406 C 314.089844 75.691406 316.722656 73.050781 316.722656 69.796875 C 316.722656 66.542969 314.089844 63.902344 310.84375 63.902344 C 310.84375 63.902344 82.371094 63.902344 34.460938 63.902344 C 24.71875 63.902344 16.820312 71.816406 16.820312 81.582031 L 16.820312 293.726562 C 16.820312 303.488281 24.71875 311.402344 34.460938 311.402344 L 46.222656 311.402344 C 49.46875 311.402344 52.101562 308.765625 52.101562 305.511719 C 52.101562 302.257812 49.46875 299.617188 46.222656 299.617188 L 34.460938 299.617188 C 31.214844 299.617188 28.582031 296.976562 28.582031 293.726562 Z M 28.582031 128.726562 " fill-opacity="1" fill-rule="evenodd"/></g><g clip-path="url(#id3)"><path fill="#a0c4dc" d="M 346.125 116.941406 L 152.070312 116.941406 C 148.824219 116.941406 146.191406 119.578125 146.191406 122.832031 C 146.191406 126.085938 148.824219 128.726562 152.070312 128.726562 L 346.125 128.726562 L 346.125 293.726562 C 346.125 296.976562 343.492188 299.617188 340.246094 299.617188 C 340.246094 299.617188 81.503906 299.617188 81.503906 299.617188 C 78.257812 299.617188 75.625 302.257812 75.625 305.511719 C 75.625 308.765625 78.257812 311.402344 81.503906 311.402344 C 81.503906 311.402344 294.972656 311.402344 340.246094 311.402344 C 349.988281 311.402344 357.886719 303.488281 357.886719 293.726562 L 357.886719 81.582031 C 357.886719 71.816406 349.988281 63.902344 340.246094 63.902344 L 328.484375 63.902344 C 325.238281 63.902344 322.605469 66.542969 322.605469 69.796875 C 322.605469 73.050781 325.238281 75.691406 328.484375 75.691406 L 340.246094 75.691406 C 343.492188 75.691406 346.125 78.328125 346.125 81.582031 Z M 346.125 116.941406 " fill-opacity="1" fill-rule="evenodd"/></g><path fill="#a0c4dc" d="M 202.625 261.316406 L 52.101562 261.316406 C 48.855469 261.316406 46.222656 263.953125 46.222656 267.207031 C 46.222656 270.460938 48.855469 273.101562 52.101562 273.101562 L 202.625 273.101562 C 205.871094 273.101562 208.503906 270.460938 208.503906 267.207031 C 208.503906 263.953125 205.871094 261.316406 202.625 261.316406 Z M 202.625 261.316406 " fill-opacity="1" fill-rule="evenodd"/><path fill="#a0c4dc" d="M 193.234375 231.851562 L 52.101562 231.851562 C 48.855469 231.851562 46.222656 234.492188 46.222656 237.742188 C 46.222656 240.996094 48.855469 243.636719 52.101562 243.636719 L 193.234375 243.636719 C 196.480469 243.636719 199.113281 240.996094 199.113281 237.742188 C 199.113281 234.492188 196.480469 231.851562 193.234375 231.851562 Z M 193.234375 231.851562 " fill-opacity="1" fill-rule="evenodd"/><path fill="#a0c4dc" d="M 322.605469 196.492188 L 169.710938 196.492188 C 166.464844 196.492188 163.832031 199.132812 163.832031 202.386719 C 163.832031 205.640625 166.464844 208.277344 169.710938 208.277344 L 322.605469 208.277344 C 325.851562 208.277344 328.484375 205.640625 328.484375 202.386719 C 328.484375 199.132812 325.851562 196.492188 322.605469 196.492188 Z M 322.605469 196.492188 " fill-opacity="1" fill-rule="evenodd"/><path fill="#a0c4dc" d="M 322.605469 169.976562 L 187.355469 169.976562 C 184.109375 169.976562 181.472656 172.617188 181.472656 175.867188 C 181.472656 179.121094 184.109375 181.761719 187.355469 181.761719 L 322.605469 181.761719 C 325.851562 181.761719 328.484375 179.121094 328.484375 175.867188 C 328.484375 172.617188 325.851562 169.976562 322.605469 169.976562 Z M 322.605469 169.976562 " fill-opacity="1" fill-rule="evenodd"/><path fill="#a0c4dc" d="M 322.605469 143.457031 L 169.710938 143.457031 C 166.464844 143.457031 163.832031 146.097656 163.832031 149.351562 C 163.832031 152.601562 166.464844 155.242188 169.710938 155.242188 L 322.605469 155.242188 C 325.851562 155.242188 328.484375 152.601562 328.484375 149.351562 C 328.484375 146.097656 325.851562 143.457031 322.605469 143.457031 Z M 322.605469 143.457031 " fill-opacity="1" fill-rule="evenodd"/><path fill="#a0c4dc" d="M 57.984375 96.316406 C 57.984375 96.894531 57.925781 97.46875 57.8125 98.039062 C 57.699219 98.609375 57.535156 99.160156 57.3125 99.699219 C 57.089844 100.234375 56.816406 100.742188 56.496094 101.226562 C 56.175781 101.707031 55.808594 102.15625 55.398438 102.566406 C 54.988281 102.976562 54.542969 103.34375 54.0625 103.664062 C 53.582031 103.988281 53.074219 104.257812 52.539062 104.480469 C 52.003906 104.703125 51.453125 104.871094 50.882812 104.984375 C 50.316406 105.097656 49.742188 105.152344 49.164062 105.152344 C 48.582031 105.152344 48.007812 105.097656 47.441406 104.984375 C 46.875 104.871094 46.320312 104.703125 45.785156 104.480469 C 45.25 104.257812 44.742188 103.988281 44.261719 103.664062 C 43.78125 103.34375 43.335938 102.976562 42.925781 102.566406 C 42.515625 102.15625 42.148438 101.707031 41.828125 101.226562 C 41.507812 100.742188 41.234375 100.234375 41.011719 99.699219 C 40.792969 99.160156 40.625 98.609375 40.511719 98.039062 C 40.398438 97.46875 40.339844 96.894531 40.339844 96.316406 C 40.339844 95.734375 40.398438 95.160156 40.511719 94.589844 C 40.625 94.019531 40.792969 93.46875 41.011719 92.933594 C 41.234375 92.394531 41.507812 91.886719 41.828125 91.402344 C 42.148438 90.921875 42.515625 90.476562 42.925781 90.066406 C 43.335938 89.652344 43.78125 89.289062 44.261719 88.964844 C 44.742188 88.644531 45.25 88.371094 45.785156 88.148438 C 46.320312 87.925781 46.875 87.757812 47.441406 87.644531 C 48.007812 87.53125 48.582031 87.476562 49.164062 87.476562 C 49.742188 87.476562 50.316406 87.53125 50.882812 87.644531 C 51.453125 87.757812 52.003906 87.925781 52.539062 88.148438 C 53.074219 88.371094 53.582031 88.644531 54.0625 88.964844 C 54.542969 89.289062 54.988281 89.652344 55.398438 90.066406 C 55.808594 90.476562 56.175781 90.921875 56.496094 91.402344 C 56.816406 91.886719 57.089844 92.394531 57.3125 92.933594 C 57.535156 93.46875 57.699219 94.019531 57.8125 94.589844 C 57.925781 95.160156 57.984375 95.734375 57.984375 96.316406 Z M 57.984375 96.316406 " fill-opacity="1" fill-rule="nonzero"/><path fill="#a0c4dc" d="M 87.386719 96.316406 C 87.386719 96.894531 87.328125 97.46875 87.214844 98.039062 C 87.101562 98.609375 86.9375 99.160156 86.714844 99.699219 C 86.492188 100.234375 86.21875 100.742188 85.898438 101.226562 C 85.578125 101.707031 85.210938 102.15625 84.800781 102.566406 C 84.390625 102.976562 83.945312 103.34375 83.464844 103.664062 C 82.984375 103.988281 82.476562 104.257812 81.941406 104.480469 C 81.40625 104.703125 80.855469 104.871094 80.285156 104.984375 C 79.71875 105.097656 79.144531 105.152344 78.566406 105.152344 C 77.984375 105.152344 77.410156 105.097656 76.84375 104.984375 C 76.277344 104.871094 75.722656 104.703125 75.1875 104.480469 C 74.652344 104.257812 74.144531 103.988281 73.664062 103.664062 C 73.183594 103.34375 72.738281 102.976562 72.328125 102.566406 C 71.917969 102.15625 71.550781 101.707031 71.230469 101.226562 C 70.910156 100.742188 70.636719 100.234375 70.414062 99.699219 C 70.195312 99.160156 70.027344 98.609375 69.914062 98.039062 C 69.800781 97.46875 69.742188 96.894531 69.742188 96.316406 C 69.742188 95.734375 69.800781 95.160156 69.914062 94.589844 C 70.027344 94.019531 70.195312 93.46875 70.414062 92.933594 C 70.636719 92.394531 70.910156 91.886719 71.230469 91.402344 C 71.550781 90.921875 71.917969 90.476562 72.328125 90.066406 C 72.738281 89.652344 73.183594 89.289062 73.664062 88.964844 C 74.144531 88.644531 74.652344 88.371094 75.1875 88.148438 C 75.722656 87.925781 76.277344 87.757812 76.84375 87.644531 C 77.410156 87.53125 77.984375 87.476562 78.566406 87.476562 C 79.144531 87.476562 79.71875 87.53125 80.285156 87.644531 C 80.855469 87.757812 81.40625 87.925781 81.941406 88.148438 C 82.476562 88.371094 82.984375 88.644531 83.464844 88.964844 C 83.945312 89.289062 84.390625 89.652344 84.800781 90.066406 C 85.210938 90.476562 85.578125 90.921875 85.898438 91.402344 C 86.21875 91.886719 86.492188 92.394531 86.714844 92.933594 C 86.9375 93.46875 87.101562 94.019531 87.214844 94.589844 C 87.328125 95.160156 87.386719 95.734375 87.386719 96.316406 Z M 87.386719 96.316406 " fill-opacity="1" fill-rule="nonzero"/><path fill="#a0c4dc" d="M 116.789062 96.316406 C 116.789062 96.894531 116.730469 97.46875 116.617188 98.039062 C 116.503906 98.609375 116.339844 99.160156 116.117188 99.699219 C 115.894531 100.234375 115.625 100.742188 115.300781 101.226562 C 114.980469 101.707031 114.613281 102.15625 114.203125 102.566406 C 113.792969 102.976562 113.347656 103.34375 112.867188 103.664062 C 112.386719 103.988281 111.878906 104.257812 111.34375 104.480469 C 110.808594 104.703125 110.257812 104.871094 109.6875 104.984375 C 109.121094 105.097656 108.546875 105.152344 107.96875 105.152344 C 107.386719 105.152344 106.8125 105.097656 106.246094 104.984375 C 105.679688 104.871094 105.125 104.703125 104.589844 104.480469 C 104.054688 104.257812 103.546875 103.988281 103.066406 103.664062 C 102.585938 103.34375 102.140625 102.976562 101.730469 102.566406 C 101.320312 102.15625 100.953125 101.707031 100.632812 101.226562 C 100.3125 100.742188 100.039062 100.234375 99.816406 99.699219 C 99.597656 99.160156 99.429688 98.609375 99.316406 98.039062 C 99.203125 97.46875 99.144531 96.894531 99.144531 96.316406 C 99.144531 95.734375 99.203125 95.160156 99.316406 94.589844 C 99.429688 94.019531 99.597656 93.46875 99.816406 92.933594 C 100.039062 92.394531 100.3125 91.886719 100.632812 91.402344 C 100.953125 90.921875 101.320312 90.476562 101.730469 90.066406 C 102.140625 89.652344 102.585938 89.289062 103.066406 88.964844 C 103.546875 88.644531 104.054688 88.371094 104.589844 88.148438 C 105.125 87.925781 105.679688 87.757812 106.246094 87.644531 C 106.8125 87.53125 107.386719 87.476562 107.96875 87.476562 C 108.546875 87.476562 109.121094 87.53125 109.6875 87.644531 C 110.257812 87.757812 110.808594 87.925781 111.34375 88.148438 C 111.878906 88.371094 112.386719 88.644531 112.867188 88.964844 C 113.347656 89.289062 113.792969 89.652344 114.203125 90.066406 C 114.613281 90.476562 114.980469 90.921875 115.300781 91.402344 C 115.625 91.886719 115.894531 92.394531 116.117188 92.933594 C 116.339844 93.46875 116.503906 94.019531 116.617188 94.589844 C 116.730469 95.160156 116.789062 95.734375 116.789062 96.316406 Z M 116.789062 96.316406 " fill-opacity="1" fill-rule="nonzero"/><path fill="#a0c4dc" d="M 120.828125 153.464844 L 138.640625 171.753906 C 140.867188 174.042969 140.867188 177.695312 138.640625 179.980469 L 120.828125 198.273438 C 118.5625 200.601562 118.605469 204.332031 120.925781 206.605469 C 123.25 208.875 126.980469 208.828125 129.242188 206.5 C 129.242188 206.5 139.46875 196.003906 147.054688 188.214844 C 153.742188 181.347656 153.742188 170.386719 147.054688 163.523438 C 139.46875 155.734375 129.242188 145.238281 129.242188 145.238281 C 126.980469 142.910156 123.25 142.863281 120.925781 145.132812 C 118.605469 147.40625 118.5625 151.136719 120.828125 153.464844 Z M 120.828125 153.464844 " fill-opacity="1" fill-rule="evenodd"/><path fill="#a0c4dc" d="M 297.242188 230.070312 L 315.054688 248.363281 C 317.28125 250.648438 317.28125 254.300781 315.054688 256.589844 L 297.242188 274.878906 C 294.976562 277.207031 295.019531 280.9375 297.34375 283.210938 C 299.664062 285.480469 303.394531 285.433594 305.65625 283.105469 C 305.65625 283.105469 315.882812 272.613281 323.46875 264.820312 C 330.15625 257.957031 330.15625 246.996094 323.46875 240.128906 C 315.882812 232.339844 305.65625 221.84375 305.65625 221.84375 C 303.394531 219.515625 299.664062 219.46875 297.34375 221.738281 C 295.019531 224.011719 294.976562 227.742188 297.242188 230.070312 Z M 297.242188 230.070312 " fill-opacity="1" fill-rule="evenodd"/><path fill="#a0c4dc" d="M 69.050781 145.238281 C 69.050781 145.238281 58.824219 155.734375 51.238281 163.523438 C 44.550781 170.386719 44.550781 181.347656 51.238281 188.214844 C 58.824219 196.003906 69.050781 206.5 69.050781 206.5 C 71.3125 208.828125 75.042969 208.875 77.363281 206.605469 C 79.6875 204.332031 79.730469 200.601562 77.464844 198.273438 L 59.652344 179.980469 C 57.425781 177.695312 57.425781 174.042969 59.652344 171.753906 L 77.464844 153.464844 C 79.730469 151.136719 79.6875 147.40625 77.363281 145.132812 C 75.042969 142.863281 71.3125 142.910156 69.050781 145.238281 Z M 69.050781 145.238281 " fill-opacity="1" fill-rule="evenodd"/><path fill="#a0c4dc" d="M 245.464844 221.84375 C 245.464844 221.84375 235.238281 232.339844 227.652344 240.128906 C 220.964844 246.996094 220.964844 257.957031 227.652344 264.820312 C 235.238281 272.613281 245.464844 283.105469 245.464844 283.105469 C 247.726562 285.433594 251.457031 285.480469 253.78125 283.210938 C 256.101562 280.9375 256.144531 277.207031 253.878906 274.878906 L 236.066406 256.589844 C 233.839844 254.300781 233.839844 250.648438 236.066406 248.363281 L 253.878906 230.070312 C 256.144531 227.742188 256.101562 224.011719 253.78125 221.738281 C 251.457031 219.46875 247.726562 219.515625 245.464844 221.84375 Z M 245.464844 221.84375 " fill-opacity="1" fill-rule="evenodd"/><path fill="#a0c4dc" d="M 99.257812 152.261719 L 87.578125 196.457031 C 86.75 199.605469 88.625 202.828125 91.761719 203.664062 C 94.902344 204.496094 98.117188 202.617188 98.953125 199.476562 L 110.625 155.277344 C 111.453125 152.132812 109.585938 148.910156 106.445312 148.070312 C 103.308594 147.242188 100.085938 149.121094 99.257812 152.261719 Z M 99.257812 152.261719 " fill-opacity="1" fill-rule="evenodd"/><path fill="#a0c4dc" d="M 272.621094 240.378906 L 272.621094 234.484375 C 272.621094 234.484375 278.5 234.484375 278.5 234.484375 C 278.5 234.484375 278.5 246.777344 278.5 246.777344 C 278.5 246.777344 271.402344 253.890625 271.402344 253.890625 C 270.296875 254.996094 269.679688 256.496094 269.679688 258.054688 L 269.679688 263.949219 C 269.679688 267.203125 272.316406 269.84375 275.5625 269.84375 C 278.808594 269.84375 281.441406 267.203125 281.441406 263.949219 L 281.441406 260.5 C 281.441406 260.5 288.539062 253.390625 288.539062 253.390625 C 289.644531 252.28125 290.261719 250.785156 290.261719 249.21875 L 290.261719 228.59375 C 290.261719 225.339844 287.628906 222.699219 284.382812 222.699219 L 266.738281 222.699219 C 263.492188 222.699219 260.859375 225.339844 260.859375 228.59375 L 260.859375 240.378906 C 260.859375 243.628906 263.492188 246.269531 266.738281 246.269531 C 269.984375 246.269531 272.621094 243.628906 272.621094 240.378906 Z M 272.621094 240.378906 " fill-opacity="1" fill-rule="evenodd"/><path fill="#a0c4dc" d="M 281.441406 278.992188 C 281.441406 279.378906 281.402344 279.761719 281.328125 280.144531 C 281.253906 280.523438 281.140625 280.890625 280.992188 281.25 C 280.847656 281.605469 280.664062 281.945312 280.449219 282.265625 C 280.234375 282.589844 279.992188 282.886719 279.71875 283.160156 C 279.445312 283.433594 279.148438 283.679688 278.828125 283.894531 C 278.507812 284.109375 278.167969 284.289062 277.8125 284.4375 C 277.453125 284.585938 277.085938 284.699219 276.707031 284.773438 C 276.328125 284.847656 275.945312 284.886719 275.5625 284.886719 C 275.175781 284.886719 274.792969 284.847656 274.414062 284.773438 C 274.035156 284.699219 273.667969 284.585938 273.308594 284.4375 C 272.953125 284.289062 272.613281 284.109375 272.292969 283.894531 C 271.972656 283.679688 271.675781 283.433594 271.402344 283.160156 C 271.128906 282.886719 270.886719 282.589844 270.671875 282.265625 C 270.457031 281.945312 270.277344 281.605469 270.128906 281.25 C 269.980469 280.890625 269.867188 280.523438 269.792969 280.144531 C 269.71875 279.761719 269.679688 279.378906 269.679688 278.992188 C 269.679688 278.605469 269.71875 278.222656 269.792969 277.84375 C 269.867188 277.464844 269.980469 277.097656 270.128906 276.738281 C 270.277344 276.378906 270.457031 276.042969 270.671875 275.71875 C 270.886719 275.398438 271.128906 275.101562 271.402344 274.828125 C 271.675781 274.554688 271.972656 274.308594 272.292969 274.09375 C 272.613281 273.878906 272.953125 273.695312 273.308594 273.550781 C 273.667969 273.402344 274.035156 273.289062 274.414062 273.214844 C 274.792969 273.136719 275.175781 273.101562 275.5625 273.101562 C 275.945312 273.101562 276.328125 273.136719 276.707031 273.214844 C 277.085938 273.289062 277.453125 273.402344 277.8125 273.550781 C 278.167969 273.695312 278.507812 273.878906 278.828125 274.09375 C 279.148438 274.308594 279.445312 274.554688 279.71875 274.828125 C 279.992188 275.101562 280.234375 275.398438 280.449219 275.71875 C 280.664062 276.042969 280.847656 276.378906 280.992188 276.738281 C 281.140625 277.097656 281.253906 277.464844 281.328125 277.84375 C 281.402344 278.222656 281.441406 278.605469 281.441406 278.992188 Z M 281.441406 278.992188 " fill-opacity="1" fill-rule="nonzero"/></svg>