<svg xmlns="http://www.w3.org/2000/svg" xmlns:xlink="http://www.w3.org/1999/xlink" width="500" zoomAndPan="magnify" viewBox="0 0 375 374.999991" height="500" preserveAspectRatio="xMidYMid meet" version="1.0"><defs><clipPath id="id1"><path d="M 16.730469 16.730469 L 357.980469 16.730469 L 357.980469 357.980469 L 16.730469 357.980469 Z M 16.730469 16.730469 " clip-rule="nonzero"/></clipPath></defs><path fill="#a0c4dc" d="M 119.105469 329.542969 C 119.105469 332.671875 121.660156 335.230469 124.792969 335.230469 L 249.917969 335.230469 C 253.046875 335.230469 255.605469 332.671875 255.605469 329.542969 C 255.605469 326.410156 253.046875 323.855469 249.917969 323.855469 L 124.792969 323.855469 C 121.660156 323.855469 119.105469 326.410156 119.105469 329.542969 " fill-opacity="1" fill-rule="nonzero"/><g clip-path="url(#id1)"><path fill="#a0c4dc" d="M 346.605469 272.667969 C 346.605469 275.796875 344.046875 278.355469 340.917969 278.355469 L 227.167969 278.355469 C 224.035156 278.355469 221.480469 275.796875 221.480469 272.667969 L 221.480469 244.230469 L 244.230469 244.230469 C 252.914062 244.230469 260.003906 237.695312 261.070312 229.300781 L 285.707031 253.9375 C 286.816406 255.046875 288.261719 255.605469 289.730469 255.605469 C 291.195312 255.605469 292.640625 255.046875 293.75 253.9375 L 329.917969 217.769531 C 334.230469 213.457031 336.582031 207.726562 336.582031 201.640625 C 336.582031 195.550781 334.230469 189.84375 329.917969 185.554688 C 321.054688 176.691406 306.636719 176.691406 297.769531 185.554688 L 289.730469 193.574219 L 281.6875 185.554688 C 276.152344 180.023438 268.511719 177.933594 261.292969 179.355469 L 261.292969 153.230469 L 340.917969 153.230469 C 344.046875 153.230469 346.605469 155.785156 346.605469 158.917969 Z M 284.042969 329.542969 C 284.042969 338.960938 276.398438 346.605469 266.980469 346.605469 L 107.730469 346.605469 C 98.308594 346.605469 90.667969 338.960938 90.667969 329.542969 L 90.667969 289.730469 L 147.542969 289.730469 C 156.960938 289.730469 164.605469 282.085938 164.605469 272.667969 L 164.605469 244.230469 L 210.105469 244.230469 L 210.105469 272.667969 C 210.105469 282.085938 217.746094 289.730469 227.167969 289.730469 L 284.042969 289.730469 Z M 28.105469 272.667969 L 28.105469 158.917969 C 28.105469 155.785156 30.660156 153.230469 33.792969 153.230469 L 113.417969 153.230469 L 113.417969 180.398438 C 105.441406 174.023438 95.441406 170.292969 84.980469 170.292969 C 59.894531 170.292969 39.480469 190.707031 39.480469 215.792969 C 39.480469 230.699219 46.765625 244.652344 58.941406 253.070312 C 66.539062 258.449219 75.535156 261.292969 84.980469 261.292969 C 94.421875 261.292969 103.417969 258.449219 110.972656 253.117188 C 115.371094 250.070312 119.105469 246.25 122.125 241.941406 C 124.613281 243.363281 127.433594 244.230469 130.480469 244.230469 L 153.230469 244.230469 L 153.230469 272.667969 C 153.230469 275.796875 150.671875 278.355469 147.542969 278.355469 L 33.792969 278.355469 C 30.660156 278.355469 28.105469 275.796875 28.105469 272.667969 Z M 261.292969 191.128906 C 265.445312 189.398438 270.3125 190.265625 273.644531 193.597656 L 285.707031 205.660156 C 287.929688 207.859375 291.527344 207.859375 293.75 205.660156 L 305.8125 193.597656 C 310.234375 189.152344 317.457031 189.175781 321.875 193.597656 C 324.03125 195.75 325.207031 198.59375 325.207031 201.640625 C 325.207031 204.683594 324.03125 207.570312 321.875 209.726562 L 289.730469 241.875 L 261.292969 213.4375 Z M 112.148438 236.320312 C 110.839844 231.808594 108.527344 227.589844 105.0625 224.078125 C 102.261719 221.300781 98.976562 219.210938 95.421875 217.8125 C 99.417969 214.679688 102.042969 209.882812 102.042969 204.417969 C 102.042969 194.996094 94.398438 187.355469 84.980469 187.355469 C 75.558594 187.355469 67.917969 194.996094 67.917969 204.417969 C 67.917969 209.882812 70.558594 214.703125 74.558594 217.835938 C 66.449219 221.035156 60.273438 227.878906 57.785156 236.320312 C 53.386719 230.5 50.855469 223.324219 50.855469 215.792969 C 50.855469 196.972656 66.160156 181.667969 84.980469 181.667969 C 96.597656 181.667969 107.105469 187.421875 113.417969 197.0625 L 113.417969 227.167969 C 113.417969 229.164062 113.839844 231.054688 114.460938 232.855469 C 113.773438 234.054688 112.992188 235.207031 112.148438 236.320312 Z M 97.019531 232.121094 C 100.265625 235.410156 102.042969 239.695312 102.042969 244.230469 L 102.042969 245.207031 C 91.734375 251.203125 78.3125 251.226562 67.917969 245.207031 L 67.917969 244.230469 C 67.917969 234.808594 75.558594 227.167969 84.980469 227.167969 C 89.511719 227.167969 93.796875 228.945312 97.019531 232.121094 Z M 84.980469 210.105469 C 81.847656 210.105469 79.292969 207.546875 79.292969 204.417969 C 79.292969 201.285156 81.847656 198.730469 84.980469 198.730469 C 88.109375 198.730469 90.667969 201.285156 90.667969 204.417969 C 90.667969 207.546875 88.109375 210.105469 84.980469 210.105469 Z M 130.480469 232.855469 C 127.347656 232.855469 124.792969 230.296875 124.792969 227.167969 L 124.792969 113.417969 C 124.792969 110.285156 127.347656 107.730469 130.480469 107.730469 L 244.230469 107.730469 C 247.359375 107.730469 249.917969 110.285156 249.917969 113.417969 L 249.917969 227.167969 C 249.917969 230.296875 247.359375 232.855469 244.230469 232.855469 Z M 90.667969 45.167969 C 90.667969 35.746094 98.308594 28.105469 107.730469 28.105469 L 119.105469 28.105469 L 119.105469 45.167969 C 119.105469 54.585938 126.746094 62.230469 136.167969 62.230469 L 238.542969 62.230469 C 247.960938 62.230469 255.605469 54.585938 255.605469 45.167969 L 255.605469 28.105469 L 266.980469 28.105469 C 276.398438 28.105469 284.042969 35.746094 284.042969 45.167969 L 284.042969 141.855469 L 261.292969 141.855469 L 261.292969 113.417969 C 261.292969 103.996094 253.648438 96.355469 244.230469 96.355469 L 130.480469 96.355469 C 121.058594 96.355469 113.417969 103.996094 113.417969 113.417969 L 113.417969 141.855469 L 90.667969 141.855469 Z M 130.480469 28.105469 L 244.230469 28.105469 L 244.230469 45.167969 C 244.230469 48.296875 241.671875 50.855469 238.542969 50.855469 L 136.167969 50.855469 C 133.035156 50.855469 130.480469 48.296875 130.480469 45.167969 Z M 340.917969 141.855469 L 295.417969 141.855469 L 295.417969 45.167969 C 295.417969 29.480469 282.664062 16.730469 266.980469 16.730469 L 107.730469 16.730469 C 92.042969 16.730469 79.292969 29.480469 79.292969 45.167969 L 79.292969 141.855469 L 33.792969 141.855469 C 24.371094 141.855469 16.730469 149.496094 16.730469 158.917969 L 16.730469 272.667969 C 16.730469 282.085938 24.371094 289.730469 33.792969 289.730469 L 79.292969 289.730469 L 79.292969 329.542969 C 79.292969 345.226562 92.042969 357.980469 107.730469 357.980469 L 266.980469 357.980469 C 282.664062 357.980469 295.417969 345.226562 295.417969 329.542969 L 295.417969 289.730469 L 340.917969 289.730469 C 350.335938 289.730469 357.980469 282.085938 357.980469 272.667969 L 357.980469 158.917969 C 357.980469 149.496094 350.335938 141.855469 340.917969 141.855469 " fill-opacity="1" fill-rule="nonzero"/></g><path fill="#a0c4dc" d="M 227.167969 175.980469 L 214.835938 175.980469 C 212.523438 175.980469 210.460938 177.355469 209.570312 179.488281 C 208.683594 181.621094 209.171875 184.066406 210.792969 185.6875 L 219.523438 194.394531 L 211.457031 202.460938 L 202.75 193.730469 C 201.128906 192.109375 198.683594 191.640625 196.550781 192.507812 C 194.417969 193.398438 193.042969 195.460938 193.042969 197.773438 L 193.042969 210.105469 L 181.667969 210.105469 L 181.667969 197.773438 C 181.667969 195.460938 180.289062 193.398438 178.15625 192.507812 C 176.023438 191.621094 173.578125 192.109375 171.957031 193.730469 L 163.25 202.460938 L 155.183594 194.394531 L 163.914062 185.6875 C 165.535156 184.066406 166.027344 181.621094 165.136719 179.488281 C 164.25 177.355469 162.183594 175.980469 159.871094 175.980469 L 147.542969 175.980469 L 147.542969 164.605469 L 159.871094 164.605469 C 162.183594 164.605469 164.25 163.226562 165.136719 161.09375 C 166.027344 158.960938 165.535156 156.515625 163.914062 154.894531 L 155.183594 146.1875 L 163.25 138.121094 L 171.957031 146.851562 C 173.578125 148.472656 176.046875 148.964844 178.15625 148.074219 C 180.289062 147.1875 181.667969 145.121094 181.667969 142.808594 L 181.667969 130.480469 L 193.042969 130.480469 L 193.042969 142.808594 C 193.042969 145.121094 194.417969 147.1875 196.550781 148.074219 C 198.683594 148.964844 201.128906 148.472656 202.75 146.851562 L 211.457031 138.121094 L 219.523438 146.1875 L 210.792969 154.894531 C 209.171875 156.515625 208.683594 158.960938 209.570312 161.09375 C 210.460938 163.226562 212.523438 164.605469 214.835938 164.605469 L 227.167969 164.605469 Z M 232.855469 153.230469 L 228.542969 153.230469 L 231.585938 150.207031 C 233.808594 147.984375 233.808594 144.386719 231.585938 142.140625 L 215.503906 126.058594 C 213.257812 123.835938 209.660156 123.835938 207.4375 126.058594 L 204.417969 129.101562 L 204.417969 124.792969 C 204.417969 121.660156 201.859375 119.105469 198.730469 119.105469 L 175.980469 119.105469 C 172.847656 119.105469 170.292969 121.660156 170.292969 124.792969 L 170.292969 129.101562 L 167.269531 126.058594 C 165.046875 123.835938 161.449219 123.835938 159.203125 126.058594 L 143.121094 142.140625 C 140.898438 144.386719 140.898438 147.984375 143.121094 150.207031 L 146.164062 153.230469 L 141.855469 153.230469 C 138.722656 153.230469 136.167969 155.785156 136.167969 158.917969 L 136.167969 181.667969 C 136.167969 184.796875 138.722656 187.355469 141.855469 187.355469 L 146.164062 187.355469 L 143.121094 190.375 C 140.898438 192.597656 140.898438 196.195312 143.121094 198.441406 L 159.203125 214.523438 C 161.449219 216.746094 165.046875 216.746094 167.269531 214.523438 L 170.292969 211.480469 L 170.292969 215.792969 C 170.292969 218.921875 172.847656 221.480469 175.980469 221.480469 L 198.730469 221.480469 C 201.859375 221.480469 204.417969 218.921875 204.417969 215.792969 L 204.417969 211.480469 L 207.4375 214.523438 C 209.660156 216.746094 213.257812 216.746094 215.503906 214.523438 L 231.585938 198.441406 C 233.808594 196.195312 233.808594 192.597656 231.585938 190.375 L 228.542969 187.355469 L 232.855469 187.355469 C 235.984375 187.355469 238.542969 184.796875 238.542969 181.667969 L 238.542969 158.917969 C 238.542969 155.785156 235.984375 153.230469 232.855469 153.230469 " fill-opacity="1" fill-rule="nonzero"/><path fill="#a0c4dc" d="M 187.355469 175.980469 C 184.222656 175.980469 181.667969 173.421875 181.667969 170.292969 C 181.667969 167.160156 184.222656 164.605469 187.355469 164.605469 C 190.484375 164.605469 193.042969 167.160156 193.042969 170.292969 C 193.042969 173.421875 190.484375 175.980469 187.355469 175.980469 Z M 187.355469 153.230469 C 177.933594 153.230469 170.292969 160.871094 170.292969 170.292969 C 170.292969 179.710938 177.933594 187.355469 187.355469 187.355469 C 196.773438 187.355469 204.417969 179.710938 204.417969 170.292969 C 204.417969 160.871094 196.773438 153.230469 187.355469 153.230469 " fill-opacity="1" fill-rule="nonzero"/></svg>