<svg xmlns="http://www.w3.org/2000/svg" xmlns:xlink="http://www.w3.org/1999/xlink" width="500" zoomAndPan="magnify" viewBox="0 0 375 374.999991" height="500" preserveAspectRatio="xMidYMid meet" version="1.0"><defs><clipPath id="id1"><path d="M 16.730469 16.730469 L 357.980469 16.730469 L 357.980469 357.980469 L 16.730469 357.980469 Z M 16.730469 16.730469 " clip-rule="nonzero"/></clipPath></defs><g clip-path="url(#id1)"><path fill="#a0c4dc" d="M 330.457031 16.730469 L 44.25 16.730469 C 43.347656 16.730469 42.449219 16.773438 41.550781 16.859375 C 40.65625 16.949219 39.765625 17.082031 38.878906 17.257812 C 37.996094 17.433594 37.121094 17.652344 36.261719 17.914062 C 35.398438 18.175781 34.550781 18.480469 33.71875 18.824219 C 32.882812 19.167969 32.070312 19.554688 31.277344 19.976562 C 30.480469 20.402344 29.707031 20.867188 28.960938 21.367188 C 28.210938 21.867188 27.488281 22.402344 26.789062 22.976562 C 26.09375 23.546875 25.425781 24.152344 24.789062 24.789062 C 24.152344 25.425781 23.546875 26.09375 22.976562 26.789062 C 22.402344 27.488281 21.867188 28.210938 21.367188 28.960938 C 20.867188 29.707031 20.402344 30.480469 19.976562 31.277344 C 19.554688 32.070312 19.167969 32.882812 18.824219 33.71875 C 18.480469 34.550781 18.175781 35.398438 17.914062 36.261719 C 17.652344 37.121094 17.433594 37.996094 17.257812 38.878906 C 17.082031 39.765625 16.949219 40.65625 16.859375 41.550781 C 16.773438 42.449219 16.730469 43.347656 16.730469 44.25 L 16.730469 264.410156 C 16.730469 265.3125 16.773438 266.210938 16.859375 267.109375 C 16.949219 268.003906 17.082031 268.894531 17.257812 269.777344 C 17.433594 270.664062 17.652344 271.535156 17.914062 272.398438 C 18.175781 273.261719 18.480469 274.109375 18.824219 274.941406 C 19.167969 275.773438 19.554688 276.589844 19.976562 277.382812 C 20.402344 278.179688 20.867188 278.949219 21.367188 279.699219 C 21.867188 280.449219 22.402344 281.171875 22.976562 281.867188 C 23.546875 282.566406 24.152344 283.234375 24.789062 283.871094 C 25.425781 284.507812 26.09375 285.113281 26.789062 285.683594 C 27.488281 286.253906 28.210938 286.792969 28.960938 287.292969 C 29.707031 287.792969 30.480469 288.253906 31.277344 288.679688 C 32.070312 289.105469 32.882812 289.492188 33.71875 289.835938 C 34.550781 290.179688 35.398438 290.484375 36.261719 290.746094 C 37.121094 291.007812 37.996094 291.226562 38.878906 291.402344 C 39.765625 291.578125 40.65625 291.710938 41.550781 291.796875 C 42.449219 291.886719 43.347656 291.929688 44.25 291.929688 L 139.910156 291.929688 L 123.398438 324.953125 L 104.792969 324.953125 C 104.433594 324.953125 104.074219 324.988281 103.71875 325.058594 C 103.363281 325.128906 103.019531 325.234375 102.6875 325.375 C 102.351562 325.511719 102.035156 325.679688 101.734375 325.882812 C 101.433594 326.082031 101.15625 326.3125 100.902344 326.566406 C 100.644531 326.820312 100.417969 327.101562 100.214844 327.402344 C 100.015625 327.699219 99.847656 328.019531 99.707031 328.351562 C 99.570312 328.6875 99.464844 329.03125 99.394531 329.382812 C 99.324219 329.738281 99.289062 330.097656 99.289062 330.457031 L 99.289062 352.472656 C 99.289062 352.835938 99.324219 353.195312 99.394531 353.546875 C 99.464844 353.902344 99.570312 354.246094 99.707031 354.582031 C 99.847656 354.914062 100.015625 355.230469 100.214844 355.53125 C 100.417969 355.832031 100.644531 356.109375 100.902344 356.367188 C 101.15625 356.621094 101.433594 356.851562 101.734375 357.050781 C 102.035156 357.25 102.351562 357.421875 102.6875 357.558594 C 103.019531 357.699219 103.363281 357.800781 103.71875 357.871094 C 104.074219 357.941406 104.433594 357.980469 104.792969 357.980469 L 269.914062 357.980469 C 270.277344 357.980469 270.632812 357.941406 270.988281 357.871094 C 271.34375 357.800781 271.6875 357.699219 272.019531 357.558594 C 272.355469 357.421875 272.671875 357.25 272.972656 357.050781 C 273.273438 356.851562 273.550781 356.621094 273.804688 356.367188 C 274.0625 356.109375 274.289062 355.832031 274.492188 355.53125 C 274.691406 355.230469 274.859375 354.914062 275 354.582031 C 275.136719 354.246094 275.242188 353.902344 275.3125 353.546875 C 275.382812 353.195312 275.417969 352.835938 275.417969 352.472656 L 275.417969 330.457031 C 275.417969 330.097656 275.382812 329.738281 275.3125 329.382812 C 275.242188 329.03125 275.136719 328.6875 275 328.351562 C 274.859375 328.019531 274.691406 327.699219 274.492188 327.402344 C 274.289062 327.101562 274.0625 326.820312 273.804688 326.566406 C 273.550781 326.3125 273.273438 326.082031 272.972656 325.882812 C 272.671875 325.679688 272.355469 325.511719 272.019531 325.375 C 271.6875 325.234375 271.34375 325.128906 270.988281 325.058594 C 270.632812 324.988281 270.277344 324.953125 269.914062 324.953125 L 251.308594 324.953125 L 234.796875 291.929688 L 330.457031 291.929688 C 331.359375 291.929688 332.257812 291.886719 333.15625 291.796875 C 334.054688 291.710938 334.941406 291.578125 335.828125 291.402344 C 336.710938 291.226562 337.585938 291.007812 338.445312 290.746094 C 339.308594 290.484375 340.15625 290.179688 340.988281 289.835938 C 341.824219 289.492188 342.636719 289.105469 343.429688 288.679688 C 344.226562 288.253906 345 287.792969 345.746094 287.292969 C 346.496094 286.792969 347.21875 286.253906 347.917969 285.683594 C 348.613281 285.113281 349.28125 284.507812 349.917969 283.871094 C 350.554688 283.234375 351.160156 282.566406 351.730469 281.867188 C 352.304688 281.171875 352.839844 280.449219 353.339844 279.699219 C 353.839844 278.949219 354.304688 278.179688 354.730469 277.382812 C 355.152344 276.589844 355.539062 275.773438 355.882812 274.941406 C 356.230469 274.109375 356.53125 273.261719 356.792969 272.398438 C 357.054688 271.535156 357.273438 270.664062 357.449219 269.777344 C 357.625 268.894531 357.757812 268.003906 357.847656 267.109375 C 357.933594 266.210938 357.980469 265.3125 357.980469 264.410156 L 357.980469 44.25 C 357.980469 43.347656 357.933594 42.449219 357.847656 41.550781 C 357.757812 40.65625 357.625 39.765625 357.449219 38.878906 C 357.273438 37.996094 357.054688 37.121094 356.792969 36.261719 C 356.53125 35.398438 356.230469 34.550781 355.882812 33.71875 C 355.539062 32.882812 355.152344 32.070312 354.730469 31.277344 C 354.304688 30.480469 353.839844 29.707031 353.339844 28.960938 C 352.839844 28.210938 352.304688 27.488281 351.730469 26.789062 C 351.160156 26.09375 350.554688 25.425781 349.917969 24.789062 C 349.28125 24.152344 348.613281 23.546875 347.917969 22.976562 C 347.21875 22.402344 346.496094 21.867188 345.746094 21.367188 C 345 20.867188 344.226562 20.402344 343.429688 19.976562 C 342.636719 19.554688 341.824219 19.167969 340.988281 18.824219 C 340.15625 18.480469 339.308594 18.175781 338.445312 17.914062 C 337.585938 17.652344 336.710938 17.433594 335.828125 17.257812 C 334.941406 17.082031 334.054688 16.949219 333.15625 16.859375 C 332.257812 16.773438 331.359375 16.730469 330.457031 16.730469 Z M 264.410156 346.96875 L 110.296875 346.96875 L 110.296875 335.960938 L 264.410156 335.960938 Z M 238.980469 324.953125 L 135.726562 324.953125 L 152.238281 291.929688 L 222.46875 291.929688 Z M 346.96875 264.410156 C 346.96875 264.949219 346.945312 265.492188 346.890625 266.027344 C 346.839844 266.566406 346.757812 267.101562 346.652344 267.632812 C 346.546875 268.160156 346.417969 268.6875 346.257812 269.203125 C 346.101562 269.722656 345.921875 270.230469 345.714844 270.730469 C 345.507812 271.230469 345.277344 271.71875 345.019531 272.195312 C 344.765625 272.671875 344.488281 273.132812 344.1875 273.582031 C 343.886719 274.035156 343.566406 274.46875 343.222656 274.886719 C 342.878906 275.304688 342.515625 275.703125 342.132812 276.085938 C 341.75 276.46875 341.351562 276.832031 340.933594 277.175781 C 340.515625 277.515625 340.082031 277.839844 339.632812 278.140625 C 339.183594 278.441406 338.71875 278.71875 338.242188 278.972656 C 337.765625 279.226562 337.277344 279.457031 336.777344 279.664062 C 336.277344 279.871094 335.769531 280.054688 335.25 280.210938 C 334.734375 280.367188 334.210938 280.5 333.679688 280.605469 C 333.148438 280.710938 332.613281 280.789062 332.078125 280.84375 C 331.539062 280.894531 331 280.921875 330.457031 280.921875 L 44.25 280.921875 C 43.707031 280.921875 43.167969 280.894531 42.628906 280.84375 C 42.09375 280.789062 41.558594 280.710938 41.027344 280.605469 C 40.496094 280.5 39.972656 280.367188 39.457031 280.210938 C 38.9375 280.054688 38.429688 279.871094 37.929688 279.664062 C 37.429688 279.457031 36.941406 279.226562 36.464844 278.972656 C 35.988281 278.71875 35.523438 278.441406 35.074219 278.140625 C 34.625 277.839844 34.191406 277.515625 33.773438 277.175781 C 33.355469 276.832031 32.957031 276.46875 32.574219 276.085938 C 32.191406 275.703125 31.828125 275.304688 31.484375 274.886719 C 31.140625 274.46875 30.820312 274.035156 30.519531 273.582031 C 30.21875 273.132812 29.941406 272.671875 29.6875 272.195312 C 29.429688 271.71875 29.199219 271.230469 28.992188 270.730469 C 28.785156 270.230469 28.605469 269.722656 28.449219 269.203125 C 28.289062 268.6875 28.160156 268.160156 28.054688 267.632812 C 27.949219 267.101562 27.871094 266.566406 27.816406 266.027344 C 27.761719 265.492188 27.738281 264.949219 27.738281 264.410156 L 27.738281 44.25 C 27.738281 43.707031 27.761719 43.167969 27.816406 42.628906 C 27.871094 42.09375 27.949219 41.558594 28.054688 41.027344 C 28.160156 40.496094 28.289062 39.972656 28.449219 39.457031 C 28.605469 38.9375 28.785156 38.429688 28.992188 37.929688 C 29.199219 37.429688 29.429688 36.941406 29.6875 36.464844 C 29.941406 35.988281 30.21875 35.523438 30.519531 35.074219 C 30.820312 34.625 31.140625 34.191406 31.484375 33.773438 C 31.828125 33.355469 32.191406 32.957031 32.574219 32.574219 C 32.957031 32.191406 33.355469 31.828125 33.773438 31.484375 C 34.191406 31.140625 34.625 30.820312 35.074219 30.519531 C 35.523438 30.21875 35.988281 29.941406 36.464844 29.6875 C 36.941406 29.429688 37.429688 29.199219 37.929688 28.992188 C 38.429688 28.785156 38.9375 28.605469 39.457031 28.449219 C 39.972656 28.289062 40.496094 28.160156 41.027344 28.054688 C 41.558594 27.949219 42.09375 27.871094 42.628906 27.816406 C 43.167969 27.761719 43.707031 27.738281 44.25 27.738281 L 330.457031 27.738281 C 331 27.738281 331.539062 27.761719 332.078125 27.816406 C 332.613281 27.871094 333.148438 27.949219 333.679688 28.054688 C 334.210938 28.160156 334.734375 28.289062 335.25 28.449219 C 335.769531 28.605469 336.277344 28.785156 336.777344 28.992188 C 337.277344 29.199219 337.765625 29.429688 338.242188 29.6875 C 338.71875 29.941406 339.183594 30.21875 339.632812 30.519531 C 340.082031 30.820312 340.515625 31.140625 340.933594 31.484375 C 341.351562 31.828125 341.75 32.191406 342.132812 32.574219 C 342.515625 32.957031 342.878906 33.355469 343.222656 33.773438 C 343.566406 34.191406 343.886719 34.625 344.1875 35.074219 C 344.488281 35.523438 344.765625 35.988281 345.019531 36.464844 C 345.277344 36.941406 345.507812 37.429688 345.714844 37.929688 C 345.921875 38.429688 346.101562 38.9375 346.257812 39.457031 C 346.417969 39.972656 346.546875 40.496094 346.652344 41.027344 C 346.757812 41.558594 346.839844 42.09375 346.890625 42.628906 C 346.945312 43.167969 346.96875 43.707031 346.96875 44.25 Z M 346.96875 264.410156 " fill-opacity="1" fill-rule="nonzero"/></g><path fill="#a0c4dc" d="M 330.457031 38.746094 L 44.25 38.746094 C 43.886719 38.746094 43.53125 38.78125 43.175781 38.851562 C 42.820312 38.921875 42.476562 39.027344 42.140625 39.164062 C 41.808594 39.300781 41.492188 39.472656 41.191406 39.671875 C 40.890625 39.875 40.613281 40.101562 40.355469 40.355469 C 40.101562 40.613281 39.875 40.890625 39.671875 41.191406 C 39.472656 41.492188 39.300781 41.808594 39.164062 42.140625 C 39.027344 42.476562 38.921875 42.820312 38.851562 43.175781 C 38.78125 43.53125 38.746094 43.886719 38.746094 44.25 L 38.746094 242.394531 C 38.746094 242.753906 38.78125 243.113281 38.851562 243.46875 C 38.921875 243.820312 39.023438 244.167969 39.164062 244.5 C 39.300781 244.835938 39.472656 245.152344 39.671875 245.453125 C 39.875 245.753906 40.101562 246.03125 40.355469 246.285156 C 40.613281 246.542969 40.890625 246.769531 41.191406 246.96875 C 41.492188 247.171875 41.808594 247.339844 42.140625 247.480469 C 42.476562 247.617188 42.820312 247.722656 43.175781 247.792969 C 43.53125 247.863281 43.886719 247.898438 44.25 247.898438 L 330.457031 247.898438 C 330.820312 247.898438 331.175781 247.863281 331.53125 247.792969 C 331.886719 247.722656 332.230469 247.617188 332.566406 247.480469 C 332.898438 247.339844 333.214844 247.171875 333.515625 246.96875 C 333.816406 246.769531 334.09375 246.542969 334.351562 246.285156 C 334.605469 246.03125 334.835938 245.753906 335.035156 245.453125 C 335.234375 245.152344 335.40625 244.835938 335.542969 244.5 C 335.683594 244.167969 335.785156 243.820312 335.855469 243.46875 C 335.925781 243.113281 335.960938 242.753906 335.960938 242.394531 L 335.960938 44.25 C 335.960938 43.886719 335.925781 43.53125 335.855469 43.175781 C 335.785156 42.820312 335.683594 42.476562 335.542969 42.140625 C 335.40625 41.808594 335.234375 41.492188 335.035156 41.191406 C 334.835938 40.890625 334.605469 40.613281 334.351562 40.355469 C 334.09375 40.101562 333.816406 39.875 333.515625 39.671875 C 333.214844 39.472656 332.898438 39.300781 332.566406 39.164062 C 332.230469 39.027344 331.886719 38.921875 331.53125 38.851562 C 331.175781 38.78125 330.820312 38.746094 330.457031 38.746094 Z M 121.304688 131.929688 C 122.027344 132.46875 122.71875 133.042969 123.382812 133.652344 C 124.046875 134.261719 124.679688 134.902344 125.28125 135.574219 C 125.886719 136.242188 126.453125 136.941406 126.984375 137.667969 C 127.519531 138.394531 128.015625 139.148438 128.472656 139.921875 C 128.933594 140.699219 129.351562 141.496094 129.734375 142.3125 C 130.113281 143.128906 130.453125 143.960938 130.753906 144.8125 C 131.054688 145.664062 131.308594 146.523438 131.523438 147.402344 C 131.738281 148.277344 131.910156 149.160156 132.035156 150.050781 C 132.164062 150.945312 132.246094 151.839844 132.285156 152.742188 C 132.328125 153.640625 132.320312 154.542969 132.273438 155.441406 C 132.222656 156.34375 132.128906 157.238281 131.992188 158.128906 C 131.855469 159.019531 131.675781 159.902344 131.453125 160.773438 C 131.230469 161.648438 130.960938 162.507812 130.65625 163.355469 C 130.347656 164.203125 129.996094 165.03125 129.609375 165.84375 C 129.21875 166.65625 128.789062 167.449219 128.320312 168.21875 C 127.855469 168.988281 127.351562 169.734375 126.808594 170.457031 L 118.554688 181.847656 L 91.03125 181.847656 L 86.574219 175.796875 C 85.664062 174.550781 84.816406 173.261719 84.027344 171.933594 C 83.242188 170.609375 82.523438 169.246094 81.871094 167.847656 C 81.21875 166.449219 80.632812 165.023438 80.117188 163.566406 C 79.605469 162.113281 79.160156 160.636719 78.789062 159.136719 C 78.421875 157.640625 78.121094 156.128906 77.898438 154.601562 C 77.675781 153.074219 77.527344 151.539062 77.453125 150 C 77.378906 148.457031 77.378906 146.917969 77.457031 145.375 C 77.53125 143.835938 77.683594 142.300781 77.90625 140.773438 C 78.132812 139.246094 78.429688 137.734375 78.804688 136.238281 C 79.175781 134.742188 79.621094 133.265625 80.136719 131.808594 C 80.652344 130.355469 81.238281 128.929688 81.890625 127.53125 C 82.546875 126.136719 83.269531 124.773438 84.054688 123.445312 C 84.84375 122.121094 85.691406 120.835938 86.605469 119.589844 C 87.519531 118.34375 88.488281 117.148438 89.519531 116 C 90.546875 114.847656 91.628906 113.75 92.765625 112.707031 C 93.902344 111.664062 95.085938 110.675781 96.316406 109.746094 L 110.296875 98.957031 L 110.296875 109.96875 C 110.300781 112.097656 110.550781 114.199219 111.042969 116.273438 C 111.535156 118.347656 112.257812 120.339844 113.214844 122.242188 C 114.171875 124.148438 115.332031 125.921875 116.699219 127.554688 C 118.0625 129.191406 119.601562 130.648438 121.304688 131.929688 Z M 92.574219 192.859375 L 117.011719 192.859375 L 119.765625 203.867188 L 89.820312 203.867188 Z M 88.609375 214.875 L 120.976562 214.875 L 119.710938 236.890625 L 89.878906 236.890625 Z M 166.273438 126.808594 L 187.355469 88.28125 L 187.355469 111.726562 C 186.746094 111.941406 186.15625 112.191406 185.578125 112.476562 C 185 112.757812 184.441406 113.074219 183.902344 113.425781 C 183.359375 113.773438 182.84375 114.152344 182.347656 114.5625 C 181.851562 114.972656 181.378906 115.40625 180.933594 115.871094 C 180.488281 116.335938 180.074219 116.824219 179.683594 117.339844 C 179.296875 117.851562 178.941406 118.386719 178.613281 118.941406 C 178.289062 119.496094 177.996094 120.066406 177.738281 120.65625 C 177.480469 121.246094 177.257812 121.847656 177.070312 122.464844 C 176.878906 123.078125 176.730469 123.703125 176.613281 124.335938 C 176.496094 124.96875 176.417969 125.605469 176.378906 126.246094 C 176.339844 126.890625 176.335938 127.53125 176.367188 128.171875 C 176.402344 128.816406 176.472656 129.453125 176.582031 130.089844 C 176.691406 130.722656 176.835938 131.347656 177.019531 131.964844 C 177.203125 132.582031 177.417969 133.1875 177.671875 133.777344 C 177.921875 134.371094 178.210938 134.945312 178.527344 135.503906 C 178.847656 136.0625 179.199219 136.597656 179.582031 137.117188 C 179.964844 137.632812 180.375 138.125 180.816406 138.59375 C 181.257812 139.0625 181.722656 139.503906 182.214844 139.921875 C 182.707031 140.335938 183.222656 140.71875 183.757812 141.074219 C 184.292969 141.429688 184.851562 141.75 185.425781 142.039062 C 186 142.328125 186.589844 142.585938 187.191406 142.804688 C 187.796875 143.027344 188.410156 143.210938 189.039062 143.359375 C 189.664062 143.507812 190.296875 143.621094 190.933594 143.695312 C 191.574219 143.769531 192.214844 143.808594 192.859375 143.808594 C 193.5 143.808594 194.140625 143.769531 194.78125 143.695312 C 195.417969 143.621094 196.050781 143.507812 196.679688 143.359375 C 197.304688 143.210938 197.917969 143.027344 198.523438 142.804688 C 199.128906 142.585938 199.714844 142.328125 200.289062 142.039062 C 200.867188 141.75 201.421875 141.429688 201.957031 141.074219 C 202.496094 140.71875 203.007812 140.335938 203.5 139.921875 C 203.992188 139.503906 204.457031 139.0625 204.898438 138.59375 C 205.339844 138.125 205.75 137.632812 206.132812 137.117188 C 206.515625 136.597656 206.867188 136.0625 207.1875 135.503906 C 207.503906 134.945312 207.792969 134.371094 208.042969 133.777344 C 208.296875 133.1875 208.515625 132.582031 208.695312 131.964844 C 208.878906 131.347656 209.023438 130.722656 209.132812 130.089844 C 209.242188 129.453125 209.3125 128.816406 209.347656 128.171875 C 209.378906 127.53125 209.378906 126.890625 209.335938 126.246094 C 209.296875 125.605469 209.21875 124.96875 209.101562 124.335938 C 208.988281 123.703125 208.835938 123.078125 208.648438 122.464844 C 208.457031 121.847656 208.234375 121.246094 207.976562 120.65625 C 207.71875 120.066406 207.425781 119.496094 207.101562 118.941406 C 206.773438 118.386719 206.417969 117.851562 206.03125 117.339844 C 205.640625 116.824219 205.226562 116.335938 204.78125 115.871094 C 204.335938 115.40625 203.863281 114.972656 203.367188 114.5625 C 202.871094 114.152344 202.355469 113.773438 201.8125 113.425781 C 201.273438 113.074219 200.714844 112.757812 200.136719 112.476562 C 199.558594 112.191406 198.96875 111.941406 198.363281 111.726562 L 198.363281 87.839844 L 219.441406 126.367188 C 216.675781 130.550781 214.464844 135.007812 212.808594 139.742188 C 211.148438 144.472656 210.09375 149.335938 209.644531 154.328125 L 176.34375 154.328125 C 175.820312 149.398438 174.703125 144.605469 173 139.949219 C 171.296875 135.292969 169.054688 130.914062 166.273438 126.808594 Z M 198.363281 126.808594 C 198.363281 127.171875 198.328125 127.527344 198.257812 127.882812 C 198.183594 128.238281 198.082031 128.582031 197.941406 128.914062 C 197.804688 129.25 197.636719 129.566406 197.433594 129.867188 C 197.234375 130.167969 197.003906 130.445312 196.75 130.703125 C 196.492188 130.957031 196.214844 131.183594 195.914062 131.386719 C 195.613281 131.585938 195.296875 131.757812 194.964844 131.894531 C 194.628906 132.03125 194.285156 132.136719 193.929688 132.207031 C 193.578125 132.277344 193.21875 132.3125 192.859375 132.3125 C 192.496094 132.3125 192.136719 132.277344 191.785156 132.207031 C 191.429688 132.136719 191.085938 132.03125 190.75 131.894531 C 190.417969 131.757812 190.101562 131.585938 189.800781 131.386719 C 189.5 131.183594 189.222656 130.957031 188.964844 130.703125 C 188.710938 130.445312 188.480469 130.167969 188.28125 129.867188 C 188.082031 129.566406 187.910156 129.25 187.773438 128.914062 C 187.632812 128.582031 187.53125 128.238281 187.460938 127.882812 C 187.390625 127.527344 187.355469 127.171875 187.355469 126.808594 C 187.355469 126.449219 187.390625 126.089844 187.460938 125.734375 C 187.53125 125.382812 187.632812 125.035156 187.773438 124.703125 C 187.910156 124.367188 188.082031 124.050781 188.28125 123.75 C 188.480469 123.449219 188.710938 123.171875 188.964844 122.917969 C 189.222656 122.660156 189.5 122.433594 189.800781 122.234375 C 190.101562 122.03125 190.417969 121.863281 190.75 121.722656 C 191.085938 121.585938 191.429688 121.480469 191.785156 121.410156 C 192.136719 121.339844 192.496094 121.304688 192.859375 121.304688 C 193.21875 121.304688 193.578125 121.339844 193.929688 121.410156 C 194.285156 121.480469 194.628906 121.585938 194.964844 121.722656 C 195.296875 121.863281 195.613281 122.03125 195.914062 122.234375 C 196.214844 122.433594 196.492188 122.660156 196.75 122.917969 C 197.003906 123.171875 197.234375 123.449219 197.433594 123.75 C 197.636719 124.050781 197.804688 124.367188 197.941406 124.703125 C 198.082031 125.035156 198.183594 125.382812 198.257812 125.734375 C 198.328125 126.089844 198.363281 126.449219 198.363281 126.808594 Z M 170.839844 165.335938 L 214.875 165.335938 L 214.875 176.34375 L 170.839844 176.34375 Z M 203.316406 187.355469 L 198.855469 236.890625 L 186.859375 236.890625 L 182.398438 187.355469 Z M 262.261719 137.816406 L 288.574219 137.816406 L 296.828125 159.28125 L 286.425781 177.0625 L 280.207031 167.8125 C 280.082031 167.628906 279.945312 167.449219 279.796875 167.28125 C 279.652344 167.109375 279.492188 166.949219 279.328125 166.796875 C 279.160156 166.648438 278.984375 166.507812 278.800781 166.378906 C 278.617188 166.25 278.425781 166.132812 278.226562 166.027344 C 278.027344 165.921875 277.824219 165.828125 277.613281 165.746094 C 277.402344 165.667969 277.191406 165.597656 276.972656 165.542969 C 276.753906 165.488281 276.535156 165.449219 276.308594 165.421875 C 276.085938 165.394531 275.863281 165.378906 275.636719 165.378906 C 275.414062 165.378906 275.191406 165.394531 274.964844 165.421875 C 274.742188 165.449219 274.523438 165.488281 274.304688 165.542969 C 274.085938 165.597656 273.871094 165.667969 273.664062 165.746094 C 273.453125 165.828125 273.25 165.921875 273.050781 166.027344 C 272.851562 166.132812 272.660156 166.25 272.476562 166.378906 C 272.292969 166.507812 272.117188 166.648438 271.949219 166.796875 C 271.78125 166.949219 271.625 167.109375 271.480469 167.28125 C 271.332031 167.449219 271.195312 167.628906 271.070312 167.8125 L 264.410156 177.0625 L 254.007812 159.28125 Z M 266.5 126.808594 L 275.417969 103.636719 L 284.335938 126.808594 Z M 269.914062 189.003906 L 275.417969 180.75 L 280.921875 189.003906 L 280.921875 236.890625 L 269.914062 236.890625 Z M 291.929688 189.003906 L 297.433594 179.8125 L 297.433594 236.890625 L 291.929688 236.890625 Z M 253.402344 179.8125 L 258.90625 189.003906 L 258.90625 236.890625 L 253.402344 236.890625 Z M 324.953125 236.890625 L 308.441406 236.890625 L 308.441406 159.832031 C 308.449219 159.148438 308.320312 158.488281 308.058594 157.851562 L 280.535156 86.300781 C 280.335938 85.785156 280.058594 85.3125 279.714844 84.882812 C 279.371094 84.453125 278.96875 84.082031 278.511719 83.769531 C 278.058594 83.460938 277.566406 83.222656 277.039062 83.0625 C 276.511719 82.898438 275.96875 82.820312 275.417969 82.820312 C 274.867188 82.820312 274.328125 82.898438 273.800781 83.0625 C 273.269531 83.222656 272.78125 83.460938 272.324219 83.769531 C 271.867188 84.082031 271.464844 84.453125 271.121094 84.882812 C 270.777344 85.3125 270.503906 85.785156 270.300781 86.300781 L 242.777344 157.851562 C 242.515625 158.488281 242.386719 159.148438 242.394531 159.832031 L 242.394531 236.890625 L 209.921875 236.890625 L 214.378906 187.355469 L 220.378906 187.355469 C 220.738281 187.355469 221.097656 187.316406 221.453125 187.246094 C 221.804688 187.175781 222.148438 187.074219 222.484375 186.933594 C 222.816406 186.796875 223.136719 186.625 223.4375 186.425781 C 223.734375 186.226562 224.015625 185.996094 224.269531 185.742188 C 224.523438 185.484375 224.753906 185.207031 224.953125 184.90625 C 225.15625 184.605469 225.324219 184.289062 225.460938 183.957031 C 225.601562 183.621094 225.707031 183.277344 225.777344 182.921875 C 225.847656 182.570312 225.882812 182.210938 225.882812 181.847656 L 225.882812 159.832031 C 225.882812 159.488281 225.851562 159.144531 225.789062 158.804688 C 225.722656 158.464844 225.628906 158.132812 225.503906 157.8125 C 225.375 157.492188 225.222656 157.183594 225.039062 156.890625 C 224.851562 156.597656 224.644531 156.324219 224.410156 156.070312 C 224.171875 155.820312 223.914062 155.589844 223.636719 155.382812 C 223.359375 155.179688 223.0625 155.003906 222.75 154.855469 C 222.4375 154.703125 222.117188 154.585938 221.78125 154.496094 C 221.449219 154.410156 221.109375 154.355469 220.761719 154.328125 C 221.160156 150.394531 222.023438 146.566406 223.351562 142.839844 C 224.683594 139.117188 226.445312 135.605469 228.632812 132.3125 L 230.449219 129.507812 C 230.984375 128.679688 231.277344 127.773438 231.328125 126.792969 C 231.375 125.808594 231.175781 124.878906 230.726562 124.003906 L 197.703125 63.457031 C 197.464844 63.019531 197.175781 62.625 196.832031 62.265625 C 196.488281 61.90625 196.105469 61.601562 195.675781 61.34375 C 195.25 61.089844 194.800781 60.898438 194.320312 60.765625 C 193.839844 60.632812 193.355469 60.566406 192.859375 60.566406 C 192.359375 60.566406 191.875 60.632812 191.394531 60.765625 C 190.917969 60.898438 190.464844 61.089844 190.039062 61.34375 C 189.609375 61.601562 189.226562 61.90625 188.882812 62.265625 C 188.539062 62.625 188.25 63.019531 188.015625 63.457031 L 154.988281 124.003906 C 154.539062 124.878906 154.339844 125.808594 154.390625 126.792969 C 154.4375 127.773438 154.730469 128.679688 155.265625 129.507812 L 157.082031 132.3125 C 159.269531 135.605469 161.03125 139.117188 162.363281 142.839844 C 163.695312 146.566406 164.558594 150.394531 164.953125 154.328125 C 164.605469 154.355469 164.269531 154.410156 163.933594 154.496094 C 163.597656 154.585938 163.277344 154.703125 162.964844 154.855469 C 162.652344 155.003906 162.355469 155.179688 162.078125 155.382812 C 161.800781 155.589844 161.542969 155.820312 161.308594 156.070312 C 161.070312 156.324219 160.863281 156.597656 160.679688 156.890625 C 160.492188 157.183594 160.339844 157.492188 160.210938 157.8125 C 160.085938 158.132812 159.992188 158.464844 159.929688 158.804688 C 159.863281 159.144531 159.832031 159.488281 159.832031 159.832031 L 159.832031 181.847656 C 159.832031 182.210938 159.867188 182.570312 159.9375 182.921875 C 160.007812 183.277344 160.113281 183.621094 160.253906 183.957031 C 160.390625 184.289062 160.558594 184.605469 160.761719 184.90625 C 160.960938 185.207031 161.191406 185.484375 161.445312 185.742188 C 161.699219 185.996094 161.980469 186.226562 162.28125 186.425781 C 162.578125 186.625 162.898438 186.796875 163.230469 186.933594 C 163.566406 187.074219 163.910156 187.175781 164.261719 187.246094 C 164.617188 187.316406 164.976562 187.355469 165.335938 187.355469 L 171.335938 187.355469 L 175.796875 236.890625 L 130.773438 236.890625 L 132.3125 209.699219 C 132.367188 209.148438 132.367188 208.597656 132.3125 208.046875 L 127.414062 188.566406 L 135.890625 177.0625 C 136.644531 176.050781 137.347656 175.003906 138 173.921875 C 138.652344 172.839844 139.25 171.730469 139.792969 170.589844 C 140.335938 169.449219 140.824219 168.285156 141.25 167.097656 C 141.679688 165.910156 142.046875 164.707031 142.359375 163.480469 C 142.667969 162.257812 142.917969 161.019531 143.105469 159.773438 C 143.292969 158.523438 143.421875 157.269531 143.484375 156.007812 C 143.550781 154.75 143.554688 153.488281 143.496094 152.226562 C 143.4375 150.964844 143.316406 149.710938 143.132812 148.460938 C 142.953125 147.210938 142.707031 145.972656 142.402344 144.75 C 142.101562 143.523438 141.738281 142.316406 141.3125 141.125 C 140.890625 139.9375 140.410156 138.769531 139.875 137.628906 C 139.335938 136.484375 138.746094 135.371094 138.097656 134.285156 C 137.453125 133.203125 136.753906 132.152344 136.003906 131.136719 C 135.253906 130.121094 134.457031 129.144531 133.609375 128.207031 C 132.761719 127.269531 131.875 126.378906 130.941406 125.527344 C 130.007812 124.675781 129.03125 123.875 128.019531 123.121094 C 127.011719 122.378906 126.097656 121.53125 125.28125 120.578125 C 124.464844 119.625 123.765625 118.59375 123.183594 117.484375 C 122.601562 116.375 122.152344 115.210938 121.835938 113.996094 C 121.515625 112.785156 121.339844 111.550781 121.304688 110.296875 L 121.304688 88.28125 C 121.304688 87.773438 121.234375 87.273438 121.09375 86.785156 C 120.953125 86.296875 120.75 85.835938 120.484375 85.402344 C 120.214844 84.972656 119.894531 84.585938 119.519531 84.242188 C 119.144531 83.898438 118.730469 83.609375 118.277344 83.382812 C 117.820312 83.152344 117.339844 82.984375 116.839844 82.886719 C 116.335938 82.789062 115.828125 82.761719 115.316406 82.808594 C 114.808594 82.851562 114.3125 82.964844 113.832031 83.144531 C 113.355469 83.328125 112.910156 83.570312 112.5 83.878906 L 89.710938 100.996094 C 88.183594 102.140625 86.714844 103.359375 85.308594 104.648438 C 83.898438 105.9375 82.558594 107.292969 81.28125 108.714844 C 80.003906 110.136719 78.800781 111.613281 77.667969 113.152344 C 76.539062 114.691406 75.484375 116.28125 74.507812 117.921875 C 73.53125 119.5625 72.636719 121.25 71.828125 122.976562 C 71.015625 124.707031 70.289062 126.472656 69.652344 128.269531 C 69.011719 130.070312 68.460938 131.898438 68 133.75 C 67.542969 135.605469 67.171875 137.476562 66.894531 139.363281 C 66.617188 141.253906 66.433594 143.152344 66.339844 145.058594 C 66.25 146.96875 66.25 148.875 66.34375 150.78125 C 66.4375 152.691406 66.625 154.589844 66.90625 156.476562 C 67.183594 158.367188 67.558594 160.238281 68.019531 162.089844 C 68.480469 163.941406 69.035156 165.769531 69.675781 167.566406 C 70.316406 169.367188 71.042969 171.128906 71.859375 172.859375 C 72.671875 174.585938 73.566406 176.269531 74.546875 177.910156 C 75.523438 179.550781 76.578125 181.136719 77.714844 182.675781 L 82.335938 188.839844 L 77.273438 208.046875 C 77.214844 208.597656 77.214844 209.148438 77.273438 209.699219 L 78.8125 236.890625 L 49.753906 236.890625 L 49.753906 49.753906 L 324.953125 49.753906 Z M 324.953125 236.890625 " fill-opacity="1" fill-rule="nonzero"/><path fill="#a0c4dc" d="M 313.945312 258.90625 L 324.953125 258.90625 L 324.953125 269.914062 L 313.945312 269.914062 Z M 313.945312 258.90625 " fill-opacity="1" fill-rule="nonzero"/><path fill="#a0c4dc" d="M 291.929688 258.90625 L 302.9375 258.90625 L 302.9375 269.914062 L 291.929688 269.914062 Z M 291.929688 258.90625 " fill-opacity="1" fill-rule="nonzero"/></svg>